<?xml version="1.0" encoding="utf-8" standalone="no"?>
<!DOCTYPE svg PUBLIC "-//W3C//DTD SVG 1.1//EN"
  "http://www.w3.org/Graphics/SVG/1.1/DTD/svg11.dtd">
<svg xmlns:xlink="http://www.w3.org/1999/xlink" width="422.843437pt" height="325.986375pt" viewBox="0 0 422.843437 325.986375" xmlns="http://www.w3.org/2000/svg" version="1.1">
 <metadata>
  <rdf:RDF xmlns:dc="http://purl.org/dc/elements/1.1/" xmlns:cc="http://creativecommons.org/ns#" xmlns:rdf="http://www.w3.org/1999/02/22-rdf-syntax-ns#">
   <cc:Work>
    <dc:type rdf:resource="http://purl.org/dc/dcmitype/StillImage"/>
    <dc:date>2023-01-24T17:42:51.231160</dc:date>
    <dc:format>image/svg+xml</dc:format>
    <dc:creator>
     <cc:Agent>
      <dc:title>Matplotlib v3.6.2, https://matplotlib.org/</dc:title>
     </cc:Agent>
    </dc:creator>
   </cc:Work>
  </rdf:RDF>
 </metadata>
 <defs>
  <style type="text/css">*{stroke-linejoin: round; stroke-linecap: butt}</style>
 </defs>
 <g id="figure_1">
  <g id="patch_1">
   <path d="M 0 325.986375 
L 422.843437 325.986375 
L 422.843437 0 
L 0 0 
z
" style="fill: #ffffff"/>
  </g>
  <g id="axes_1">
   <g id="patch_2">
    <path d="M 58.523438 288.430125 
L 415.643438 288.430125 
L 415.643438 22.318125 
L 58.523438 22.318125 
z
" style="fill: #ffffff"/>
   </g>
   <g id="matplotlib.axis_1">
    <g id="xtick_1">
     <g id="line2d_1">
      <path d="M 62.529327 288.430125 
L 62.529327 22.318125 
" clip-path="url(#p124a120866)" style="fill: none; stroke: #b0b0b0; stroke-width: 0.8; stroke-linecap: square"/>
     </g>
     <g id="line2d_2">
      <defs>
       <path id="m57a2621c45" d="M 0 0 
L 0 3.5 
" style="stroke: #000000; stroke-width: 0.8"/>
      </defs>
      <g>
       <use xlink:href="#m57a2621c45" x="62.529327" y="288.430125" style="stroke: #000000; stroke-width: 0.8"/>
      </g>
     </g>
     <g id="text_1">
      <!-- 13:58:22 -->
      <g transform="translate(40.073077 303.028562) scale(0.1 -0.1)">
       <defs>
        <path id="DejaVuSans-31" d="M 794 531 
L 1825 531 
L 1825 4091 
L 703 3866 
L 703 4441 
L 1819 4666 
L 2450 4666 
L 2450 531 
L 3481 531 
L 3481 0 
L 794 0 
L 794 531 
z
" transform="scale(0.015625)"/>
        <path id="DejaVuSans-33" d="M 2597 2516 
Q 3050 2419 3304 2112 
Q 3559 1806 3559 1356 
Q 3559 666 3084 287 
Q 2609 -91 1734 -91 
Q 1441 -91 1130 -33 
Q 819 25 488 141 
L 488 750 
Q 750 597 1062 519 
Q 1375 441 1716 441 
Q 2309 441 2620 675 
Q 2931 909 2931 1356 
Q 2931 1769 2642 2001 
Q 2353 2234 1838 2234 
L 1294 2234 
L 1294 2753 
L 1863 2753 
Q 2328 2753 2575 2939 
Q 2822 3125 2822 3475 
Q 2822 3834 2567 4026 
Q 2313 4219 1838 4219 
Q 1578 4219 1281 4162 
Q 984 4106 628 3988 
L 628 4550 
Q 988 4650 1302 4700 
Q 1616 4750 1894 4750 
Q 2613 4750 3031 4423 
Q 3450 4097 3450 3541 
Q 3450 3153 3228 2886 
Q 3006 2619 2597 2516 
z
" transform="scale(0.015625)"/>
        <path id="DejaVuSans-3a" d="M 750 794 
L 1409 794 
L 1409 0 
L 750 0 
L 750 794 
z
M 750 3309 
L 1409 3309 
L 1409 2516 
L 750 2516 
L 750 3309 
z
" transform="scale(0.015625)"/>
        <path id="DejaVuSans-35" d="M 691 4666 
L 3169 4666 
L 3169 4134 
L 1269 4134 
L 1269 2991 
Q 1406 3038 1543 3061 
Q 1681 3084 1819 3084 
Q 2600 3084 3056 2656 
Q 3513 2228 3513 1497 
Q 3513 744 3044 326 
Q 2575 -91 1722 -91 
Q 1428 -91 1123 -41 
Q 819 9 494 109 
L 494 744 
Q 775 591 1075 516 
Q 1375 441 1709 441 
Q 2250 441 2565 725 
Q 2881 1009 2881 1497 
Q 2881 1984 2565 2268 
Q 2250 2553 1709 2553 
Q 1456 2553 1204 2497 
Q 953 2441 691 2322 
L 691 4666 
z
" transform="scale(0.015625)"/>
        <path id="DejaVuSans-38" d="M 2034 2216 
Q 1584 2216 1326 1975 
Q 1069 1734 1069 1313 
Q 1069 891 1326 650 
Q 1584 409 2034 409 
Q 2484 409 2743 651 
Q 3003 894 3003 1313 
Q 3003 1734 2745 1975 
Q 2488 2216 2034 2216 
z
M 1403 2484 
Q 997 2584 770 2862 
Q 544 3141 544 3541 
Q 544 4100 942 4425 
Q 1341 4750 2034 4750 
Q 2731 4750 3128 4425 
Q 3525 4100 3525 3541 
Q 3525 3141 3298 2862 
Q 3072 2584 2669 2484 
Q 3125 2378 3379 2068 
Q 3634 1759 3634 1313 
Q 3634 634 3220 271 
Q 2806 -91 2034 -91 
Q 1263 -91 848 271 
Q 434 634 434 1313 
Q 434 1759 690 2068 
Q 947 2378 1403 2484 
z
M 1172 3481 
Q 1172 3119 1398 2916 
Q 1625 2713 2034 2713 
Q 2441 2713 2670 2916 
Q 2900 3119 2900 3481 
Q 2900 3844 2670 4047 
Q 2441 4250 2034 4250 
Q 1625 4250 1398 4047 
Q 1172 3844 1172 3481 
z
" transform="scale(0.015625)"/>
        <path id="DejaVuSans-32" d="M 1228 531 
L 3431 531 
L 3431 0 
L 469 0 
L 469 531 
Q 828 903 1448 1529 
Q 2069 2156 2228 2338 
Q 2531 2678 2651 2914 
Q 2772 3150 2772 3378 
Q 2772 3750 2511 3984 
Q 2250 4219 1831 4219 
Q 1534 4219 1204 4116 
Q 875 4013 500 3803 
L 500 4441 
Q 881 4594 1212 4672 
Q 1544 4750 1819 4750 
Q 2544 4750 2975 4387 
Q 3406 4025 3406 3419 
Q 3406 3131 3298 2873 
Q 3191 2616 2906 2266 
Q 2828 2175 2409 1742 
Q 1991 1309 1228 531 
z
" transform="scale(0.015625)"/>
       </defs>
       <use xlink:href="#DejaVuSans-31"/>
       <use xlink:href="#DejaVuSans-33" x="63.623047"/>
       <use xlink:href="#DejaVuSans-3a" x="127.246094"/>
       <use xlink:href="#DejaVuSans-35" x="160.9375"/>
       <use xlink:href="#DejaVuSans-38" x="224.560547"/>
       <use xlink:href="#DejaVuSans-3a" x="288.183594"/>
       <use xlink:href="#DejaVuSans-32" x="321.875"/>
       <use xlink:href="#DejaVuSans-32" x="385.498047"/>
      </g>
     </g>
    </g>
    <g id="xtick_2">
     <g id="line2d_3">
      <path d="M 116.155777 288.430125 
L 116.155777 22.318125 
" clip-path="url(#p124a120866)" style="fill: none; stroke: #b0b0b0; stroke-width: 0.8; stroke-linecap: square"/>
     </g>
     <g id="line2d_4">
      <g>
       <use xlink:href="#m57a2621c45" x="116.155777" y="288.430125" style="stroke: #000000; stroke-width: 0.8"/>
      </g>
     </g>
     <g id="text_2">
      <!-- 13:58:23 -->
      <g transform="translate(93.699527 303.028562) scale(0.1 -0.1)">
       <use xlink:href="#DejaVuSans-31"/>
       <use xlink:href="#DejaVuSans-33" x="63.623047"/>
       <use xlink:href="#DejaVuSans-3a" x="127.246094"/>
       <use xlink:href="#DejaVuSans-35" x="160.9375"/>
       <use xlink:href="#DejaVuSans-38" x="224.560547"/>
       <use xlink:href="#DejaVuSans-3a" x="288.183594"/>
       <use xlink:href="#DejaVuSans-32" x="321.875"/>
       <use xlink:href="#DejaVuSans-33" x="385.498047"/>
      </g>
     </g>
    </g>
    <g id="xtick_3">
     <g id="line2d_5">
      <path d="M 169.782242 288.430125 
L 169.782242 22.318125 
" clip-path="url(#p124a120866)" style="fill: none; stroke: #b0b0b0; stroke-width: 0.8; stroke-linecap: square"/>
     </g>
     <g id="line2d_6">
      <g>
       <use xlink:href="#m57a2621c45" x="169.782242" y="288.430125" style="stroke: #000000; stroke-width: 0.8"/>
      </g>
     </g>
     <g id="text_3">
      <!-- 13:58:24 -->
      <g transform="translate(147.325992 303.028562) scale(0.1 -0.1)">
       <defs>
        <path id="DejaVuSans-34" d="M 2419 4116 
L 825 1625 
L 2419 1625 
L 2419 4116 
z
M 2253 4666 
L 3047 4666 
L 3047 1625 
L 3713 1625 
L 3713 1100 
L 3047 1100 
L 3047 0 
L 2419 0 
L 2419 1100 
L 313 1100 
L 313 1709 
L 2253 4666 
z
" transform="scale(0.015625)"/>
       </defs>
       <use xlink:href="#DejaVuSans-31"/>
       <use xlink:href="#DejaVuSans-33" x="63.623047"/>
       <use xlink:href="#DejaVuSans-3a" x="127.246094"/>
       <use xlink:href="#DejaVuSans-35" x="160.9375"/>
       <use xlink:href="#DejaVuSans-38" x="224.560547"/>
       <use xlink:href="#DejaVuSans-3a" x="288.183594"/>
       <use xlink:href="#DejaVuSans-32" x="321.875"/>
       <use xlink:href="#DejaVuSans-34" x="385.498047"/>
      </g>
     </g>
    </g>
    <g id="xtick_4">
     <g id="line2d_7">
      <path d="M 223.408676 288.430125 
L 223.408676 22.318125 
" clip-path="url(#p124a120866)" style="fill: none; stroke: #b0b0b0; stroke-width: 0.8; stroke-linecap: square"/>
     </g>
     <g id="line2d_8">
      <g>
       <use xlink:href="#m57a2621c45" x="223.408676" y="288.430125" style="stroke: #000000; stroke-width: 0.8"/>
      </g>
     </g>
     <g id="text_4">
      <!-- 13:58:25 -->
      <g transform="translate(200.952426 303.028562) scale(0.1 -0.1)">
       <use xlink:href="#DejaVuSans-31"/>
       <use xlink:href="#DejaVuSans-33" x="63.623047"/>
       <use xlink:href="#DejaVuSans-3a" x="127.246094"/>
       <use xlink:href="#DejaVuSans-35" x="160.9375"/>
       <use xlink:href="#DejaVuSans-38" x="224.560547"/>
       <use xlink:href="#DejaVuSans-3a" x="288.183594"/>
       <use xlink:href="#DejaVuSans-32" x="321.875"/>
       <use xlink:href="#DejaVuSans-35" x="385.498047"/>
      </g>
     </g>
    </g>
    <g id="xtick_5">
     <g id="line2d_9">
      <path d="M 277.035126 288.430125 
L 277.035126 22.318125 
" clip-path="url(#p124a120866)" style="fill: none; stroke: #b0b0b0; stroke-width: 0.8; stroke-linecap: square"/>
     </g>
     <g id="line2d_10">
      <g>
       <use xlink:href="#m57a2621c45" x="277.035126" y="288.430125" style="stroke: #000000; stroke-width: 0.8"/>
      </g>
     </g>
     <g id="text_5">
      <!-- 13:58:26 -->
      <g transform="translate(254.578876 303.028562) scale(0.1 -0.1)">
       <defs>
        <path id="DejaVuSans-36" d="M 2113 2584 
Q 1688 2584 1439 2293 
Q 1191 2003 1191 1497 
Q 1191 994 1439 701 
Q 1688 409 2113 409 
Q 2538 409 2786 701 
Q 3034 994 3034 1497 
Q 3034 2003 2786 2293 
Q 2538 2584 2113 2584 
z
M 3366 4563 
L 3366 3988 
Q 3128 4100 2886 4159 
Q 2644 4219 2406 4219 
Q 1781 4219 1451 3797 
Q 1122 3375 1075 2522 
Q 1259 2794 1537 2939 
Q 1816 3084 2150 3084 
Q 2853 3084 3261 2657 
Q 3669 2231 3669 1497 
Q 3669 778 3244 343 
Q 2819 -91 2113 -91 
Q 1303 -91 875 529 
Q 447 1150 447 2328 
Q 447 3434 972 4092 
Q 1497 4750 2381 4750 
Q 2619 4750 2861 4703 
Q 3103 4656 3366 4563 
z
" transform="scale(0.015625)"/>
       </defs>
       <use xlink:href="#DejaVuSans-31"/>
       <use xlink:href="#DejaVuSans-33" x="63.623047"/>
       <use xlink:href="#DejaVuSans-3a" x="127.246094"/>
       <use xlink:href="#DejaVuSans-35" x="160.9375"/>
       <use xlink:href="#DejaVuSans-38" x="224.560547"/>
       <use xlink:href="#DejaVuSans-3a" x="288.183594"/>
       <use xlink:href="#DejaVuSans-32" x="321.875"/>
       <use xlink:href="#DejaVuSans-36" x="385.498047"/>
      </g>
     </g>
    </g>
    <g id="xtick_6">
     <g id="line2d_11">
      <path d="M 330.661575 288.430125 
L 330.661575 22.318125 
" clip-path="url(#p124a120866)" style="fill: none; stroke: #b0b0b0; stroke-width: 0.8; stroke-linecap: square"/>
     </g>
     <g id="line2d_12">
      <g>
       <use xlink:href="#m57a2621c45" x="330.661575" y="288.430125" style="stroke: #000000; stroke-width: 0.8"/>
      </g>
     </g>
     <g id="text_6">
      <!-- 13:58:27 -->
      <g transform="translate(308.205325 303.028562) scale(0.1 -0.1)">
       <defs>
        <path id="DejaVuSans-37" d="M 525 4666 
L 3525 4666 
L 3525 4397 
L 1831 0 
L 1172 0 
L 2766 4134 
L 525 4134 
L 525 4666 
z
" transform="scale(0.015625)"/>
       </defs>
       <use xlink:href="#DejaVuSans-31"/>
       <use xlink:href="#DejaVuSans-33" x="63.623047"/>
       <use xlink:href="#DejaVuSans-3a" x="127.246094"/>
       <use xlink:href="#DejaVuSans-35" x="160.9375"/>
       <use xlink:href="#DejaVuSans-38" x="224.560547"/>
       <use xlink:href="#DejaVuSans-3a" x="288.183594"/>
       <use xlink:href="#DejaVuSans-32" x="321.875"/>
       <use xlink:href="#DejaVuSans-37" x="385.498047"/>
      </g>
     </g>
    </g>
    <g id="xtick_7">
     <g id="line2d_13">
      <path d="M 384.28804 288.430125 
L 384.28804 22.318125 
" clip-path="url(#p124a120866)" style="fill: none; stroke: #b0b0b0; stroke-width: 0.8; stroke-linecap: square"/>
     </g>
     <g id="line2d_14">
      <g>
       <use xlink:href="#m57a2621c45" x="384.28804" y="288.430125" style="stroke: #000000; stroke-width: 0.8"/>
      </g>
     </g>
     <g id="text_7">
      <!-- 13:58:28 -->
      <g transform="translate(361.83179 303.028562) scale(0.1 -0.1)">
       <use xlink:href="#DejaVuSans-31"/>
       <use xlink:href="#DejaVuSans-33" x="63.623047"/>
       <use xlink:href="#DejaVuSans-3a" x="127.246094"/>
       <use xlink:href="#DejaVuSans-35" x="160.9375"/>
       <use xlink:href="#DejaVuSans-38" x="224.560547"/>
       <use xlink:href="#DejaVuSans-3a" x="288.183594"/>
       <use xlink:href="#DejaVuSans-32" x="321.875"/>
       <use xlink:href="#DejaVuSans-38" x="385.498047"/>
      </g>
     </g>
    </g>
    <g id="text_8">
     <!-- Timestamp (s) -->
     <g transform="translate(201.081094 316.706687) scale(0.1 -0.1)">
      <defs>
       <path id="DejaVuSans-54" d="M -19 4666 
L 3928 4666 
L 3928 4134 
L 2272 4134 
L 2272 0 
L 1638 0 
L 1638 4134 
L -19 4134 
L -19 4666 
z
" transform="scale(0.015625)"/>
       <path id="DejaVuSans-69" d="M 603 3500 
L 1178 3500 
L 1178 0 
L 603 0 
L 603 3500 
z
M 603 4863 
L 1178 4863 
L 1178 4134 
L 603 4134 
L 603 4863 
z
" transform="scale(0.015625)"/>
       <path id="DejaVuSans-6d" d="M 3328 2828 
Q 3544 3216 3844 3400 
Q 4144 3584 4550 3584 
Q 5097 3584 5394 3201 
Q 5691 2819 5691 2113 
L 5691 0 
L 5113 0 
L 5113 2094 
Q 5113 2597 4934 2840 
Q 4756 3084 4391 3084 
Q 3944 3084 3684 2787 
Q 3425 2491 3425 1978 
L 3425 0 
L 2847 0 
L 2847 2094 
Q 2847 2600 2669 2842 
Q 2491 3084 2119 3084 
Q 1678 3084 1418 2786 
Q 1159 2488 1159 1978 
L 1159 0 
L 581 0 
L 581 3500 
L 1159 3500 
L 1159 2956 
Q 1356 3278 1631 3431 
Q 1906 3584 2284 3584 
Q 2666 3584 2933 3390 
Q 3200 3197 3328 2828 
z
" transform="scale(0.015625)"/>
       <path id="DejaVuSans-65" d="M 3597 1894 
L 3597 1613 
L 953 1613 
Q 991 1019 1311 708 
Q 1631 397 2203 397 
Q 2534 397 2845 478 
Q 3156 559 3463 722 
L 3463 178 
Q 3153 47 2828 -22 
Q 2503 -91 2169 -91 
Q 1331 -91 842 396 
Q 353 884 353 1716 
Q 353 2575 817 3079 
Q 1281 3584 2069 3584 
Q 2775 3584 3186 3129 
Q 3597 2675 3597 1894 
z
M 3022 2063 
Q 3016 2534 2758 2815 
Q 2500 3097 2075 3097 
Q 1594 3097 1305 2825 
Q 1016 2553 972 2059 
L 3022 2063 
z
" transform="scale(0.015625)"/>
       <path id="DejaVuSans-73" d="M 2834 3397 
L 2834 2853 
Q 2591 2978 2328 3040 
Q 2066 3103 1784 3103 
Q 1356 3103 1142 2972 
Q 928 2841 928 2578 
Q 928 2378 1081 2264 
Q 1234 2150 1697 2047 
L 1894 2003 
Q 2506 1872 2764 1633 
Q 3022 1394 3022 966 
Q 3022 478 2636 193 
Q 2250 -91 1575 -91 
Q 1294 -91 989 -36 
Q 684 19 347 128 
L 347 722 
Q 666 556 975 473 
Q 1284 391 1588 391 
Q 1994 391 2212 530 
Q 2431 669 2431 922 
Q 2431 1156 2273 1281 
Q 2116 1406 1581 1522 
L 1381 1569 
Q 847 1681 609 1914 
Q 372 2147 372 2553 
Q 372 3047 722 3315 
Q 1072 3584 1716 3584 
Q 2034 3584 2315 3537 
Q 2597 3491 2834 3397 
z
" transform="scale(0.015625)"/>
       <path id="DejaVuSans-74" d="M 1172 4494 
L 1172 3500 
L 2356 3500 
L 2356 3053 
L 1172 3053 
L 1172 1153 
Q 1172 725 1289 603 
Q 1406 481 1766 481 
L 2356 481 
L 2356 0 
L 1766 0 
Q 1100 0 847 248 
Q 594 497 594 1153 
L 594 3053 
L 172 3053 
L 172 3500 
L 594 3500 
L 594 4494 
L 1172 4494 
z
" transform="scale(0.015625)"/>
       <path id="DejaVuSans-61" d="M 2194 1759 
Q 1497 1759 1228 1600 
Q 959 1441 959 1056 
Q 959 750 1161 570 
Q 1363 391 1709 391 
Q 2188 391 2477 730 
Q 2766 1069 2766 1631 
L 2766 1759 
L 2194 1759 
z
M 3341 1997 
L 3341 0 
L 2766 0 
L 2766 531 
Q 2569 213 2275 61 
Q 1981 -91 1556 -91 
Q 1019 -91 701 211 
Q 384 513 384 1019 
Q 384 1609 779 1909 
Q 1175 2209 1959 2209 
L 2766 2209 
L 2766 2266 
Q 2766 2663 2505 2880 
Q 2244 3097 1772 3097 
Q 1472 3097 1187 3025 
Q 903 2953 641 2809 
L 641 3341 
Q 956 3463 1253 3523 
Q 1550 3584 1831 3584 
Q 2591 3584 2966 3190 
Q 3341 2797 3341 1997 
z
" transform="scale(0.015625)"/>
       <path id="DejaVuSans-70" d="M 1159 525 
L 1159 -1331 
L 581 -1331 
L 581 3500 
L 1159 3500 
L 1159 2969 
Q 1341 3281 1617 3432 
Q 1894 3584 2278 3584 
Q 2916 3584 3314 3078 
Q 3713 2572 3713 1747 
Q 3713 922 3314 415 
Q 2916 -91 2278 -91 
Q 1894 -91 1617 61 
Q 1341 213 1159 525 
z
M 3116 1747 
Q 3116 2381 2855 2742 
Q 2594 3103 2138 3103 
Q 1681 3103 1420 2742 
Q 1159 2381 1159 1747 
Q 1159 1113 1420 752 
Q 1681 391 2138 391 
Q 2594 391 2855 752 
Q 3116 1113 3116 1747 
z
" transform="scale(0.015625)"/>
       <path id="DejaVuSans-20" transform="scale(0.015625)"/>
       <path id="DejaVuSans-28" d="M 1984 4856 
Q 1566 4138 1362 3434 
Q 1159 2731 1159 2009 
Q 1159 1288 1364 580 
Q 1569 -128 1984 -844 
L 1484 -844 
Q 1016 -109 783 600 
Q 550 1309 550 2009 
Q 550 2706 781 3412 
Q 1013 4119 1484 4856 
L 1984 4856 
z
" transform="scale(0.015625)"/>
       <path id="DejaVuSans-29" d="M 513 4856 
L 1013 4856 
Q 1481 4119 1714 3412 
Q 1947 2706 1947 2009 
Q 1947 1309 1714 600 
Q 1481 -109 1013 -844 
L 513 -844 
Q 928 -128 1133 580 
Q 1338 1288 1338 2009 
Q 1338 2731 1133 3434 
Q 928 4138 513 4856 
z
" transform="scale(0.015625)"/>
      </defs>
      <use xlink:href="#DejaVuSans-54"/>
      <use xlink:href="#DejaVuSans-69" x="57.958984"/>
      <use xlink:href="#DejaVuSans-6d" x="85.742188"/>
      <use xlink:href="#DejaVuSans-65" x="183.154297"/>
      <use xlink:href="#DejaVuSans-73" x="244.677734"/>
      <use xlink:href="#DejaVuSans-74" x="296.777344"/>
      <use xlink:href="#DejaVuSans-61" x="335.986328"/>
      <use xlink:href="#DejaVuSans-6d" x="397.265625"/>
      <use xlink:href="#DejaVuSans-70" x="494.677734"/>
      <use xlink:href="#DejaVuSans-20" x="558.154297"/>
      <use xlink:href="#DejaVuSans-28" x="589.941406"/>
      <use xlink:href="#DejaVuSans-73" x="628.955078"/>
      <use xlink:href="#DejaVuSans-29" x="681.054688"/>
     </g>
    </g>
   </g>
   <g id="matplotlib.axis_2">
    <g id="ytick_1">
     <g id="line2d_15">
      <path d="M 58.523438 262.367733 
L 415.643438 262.367733 
" clip-path="url(#p124a120866)" style="fill: none; stroke: #b0b0b0; stroke-width: 0.8; stroke-linecap: square"/>
     </g>
     <g id="line2d_16">
      <defs>
       <path id="m2c49fa419f" d="M 0 0 
L -3.5 0 
" style="stroke: #000000; stroke-width: 0.8"/>
      </defs>
      <g>
       <use xlink:href="#m2c49fa419f" x="58.523438" y="262.367733" style="stroke: #000000; stroke-width: 0.8"/>
      </g>
     </g>
     <g id="text_9">
      <!-- −0.05 -->
      <g transform="translate(20.878125 266.166952) scale(0.1 -0.1)">
       <defs>
        <path id="DejaVuSans-2212" d="M 678 2272 
L 4684 2272 
L 4684 1741 
L 678 1741 
L 678 2272 
z
" transform="scale(0.015625)"/>
        <path id="DejaVuSans-30" d="M 2034 4250 
Q 1547 4250 1301 3770 
Q 1056 3291 1056 2328 
Q 1056 1369 1301 889 
Q 1547 409 2034 409 
Q 2525 409 2770 889 
Q 3016 1369 3016 2328 
Q 3016 3291 2770 3770 
Q 2525 4250 2034 4250 
z
M 2034 4750 
Q 2819 4750 3233 4129 
Q 3647 3509 3647 2328 
Q 3647 1150 3233 529 
Q 2819 -91 2034 -91 
Q 1250 -91 836 529 
Q 422 1150 422 2328 
Q 422 3509 836 4129 
Q 1250 4750 2034 4750 
z
" transform="scale(0.015625)"/>
        <path id="DejaVuSans-2e" d="M 684 794 
L 1344 794 
L 1344 0 
L 684 0 
L 684 794 
z
" transform="scale(0.015625)"/>
       </defs>
       <use xlink:href="#DejaVuSans-2212"/>
       <use xlink:href="#DejaVuSans-30" x="83.789062"/>
       <use xlink:href="#DejaVuSans-2e" x="147.412109"/>
       <use xlink:href="#DejaVuSans-30" x="179.199219"/>
       <use xlink:href="#DejaVuSans-35" x="242.822266"/>
      </g>
     </g>
    </g>
    <g id="ytick_2">
     <g id="line2d_17">
      <path d="M 58.523438 218.659189 
L 415.643438 218.659189 
" clip-path="url(#p124a120866)" style="fill: none; stroke: #b0b0b0; stroke-width: 0.8; stroke-linecap: square"/>
     </g>
     <g id="line2d_18">
      <g>
       <use xlink:href="#m2c49fa419f" x="58.523438" y="218.659189" style="stroke: #000000; stroke-width: 0.8"/>
      </g>
     </g>
     <g id="text_10">
      <!-- 0.00 -->
      <g transform="translate(29.257813 222.458407) scale(0.1 -0.1)">
       <use xlink:href="#DejaVuSans-30"/>
       <use xlink:href="#DejaVuSans-2e" x="63.623047"/>
       <use xlink:href="#DejaVuSans-30" x="95.410156"/>
       <use xlink:href="#DejaVuSans-30" x="159.033203"/>
      </g>
     </g>
    </g>
    <g id="ytick_3">
     <g id="line2d_19">
      <path d="M 58.523438 174.950644 
L 415.643438 174.950644 
" clip-path="url(#p124a120866)" style="fill: none; stroke: #b0b0b0; stroke-width: 0.8; stroke-linecap: square"/>
     </g>
     <g id="line2d_20">
      <g>
       <use xlink:href="#m2c49fa419f" x="58.523438" y="174.950644" style="stroke: #000000; stroke-width: 0.8"/>
      </g>
     </g>
     <g id="text_11">
      <!-- 0.05 -->
      <g transform="translate(29.257813 178.749863) scale(0.1 -0.1)">
       <use xlink:href="#DejaVuSans-30"/>
       <use xlink:href="#DejaVuSans-2e" x="63.623047"/>
       <use xlink:href="#DejaVuSans-30" x="95.410156"/>
       <use xlink:href="#DejaVuSans-35" x="159.033203"/>
      </g>
     </g>
    </g>
    <g id="ytick_4">
     <g id="line2d_21">
      <path d="M 58.523438 131.242099 
L 415.643438 131.242099 
" clip-path="url(#p124a120866)" style="fill: none; stroke: #b0b0b0; stroke-width: 0.8; stroke-linecap: square"/>
     </g>
     <g id="line2d_22">
      <g>
       <use xlink:href="#m2c49fa419f" x="58.523438" y="131.242099" style="stroke: #000000; stroke-width: 0.8"/>
      </g>
     </g>
     <g id="text_12">
      <!-- 0.10 -->
      <g transform="translate(29.257813 135.041318) scale(0.1 -0.1)">
       <use xlink:href="#DejaVuSans-30"/>
       <use xlink:href="#DejaVuSans-2e" x="63.623047"/>
       <use xlink:href="#DejaVuSans-31" x="95.410156"/>
       <use xlink:href="#DejaVuSans-30" x="159.033203"/>
      </g>
     </g>
    </g>
    <g id="ytick_5">
     <g id="line2d_23">
      <path d="M 58.523438 87.533555 
L 415.643438 87.533555 
" clip-path="url(#p124a120866)" style="fill: none; stroke: #b0b0b0; stroke-width: 0.8; stroke-linecap: square"/>
     </g>
     <g id="line2d_24">
      <g>
       <use xlink:href="#m2c49fa419f" x="58.523438" y="87.533555" style="stroke: #000000; stroke-width: 0.8"/>
      </g>
     </g>
     <g id="text_13">
      <!-- 0.15 -->
      <g transform="translate(29.257813 91.332773) scale(0.1 -0.1)">
       <use xlink:href="#DejaVuSans-30"/>
       <use xlink:href="#DejaVuSans-2e" x="63.623047"/>
       <use xlink:href="#DejaVuSans-31" x="95.410156"/>
       <use xlink:href="#DejaVuSans-35" x="159.033203"/>
      </g>
     </g>
    </g>
    <g id="ytick_6">
     <g id="line2d_25">
      <path d="M 58.523438 43.82501 
L 415.643438 43.82501 
" clip-path="url(#p124a120866)" style="fill: none; stroke: #b0b0b0; stroke-width: 0.8; stroke-linecap: square"/>
     </g>
     <g id="line2d_26">
      <g>
       <use xlink:href="#m2c49fa419f" x="58.523438" y="43.82501" style="stroke: #000000; stroke-width: 0.8"/>
      </g>
     </g>
     <g id="text_14">
      <!-- 0.20 -->
      <g transform="translate(29.257813 47.624229) scale(0.1 -0.1)">
       <use xlink:href="#DejaVuSans-30"/>
       <use xlink:href="#DejaVuSans-2e" x="63.623047"/>
       <use xlink:href="#DejaVuSans-32" x="95.410156"/>
       <use xlink:href="#DejaVuSans-30" x="159.033203"/>
      </g>
     </g>
    </g>
    <g id="text_15">
     <!-- Velocity Magnitude -->
     <g transform="translate(14.798438 203.068656) rotate(-90) scale(0.1 -0.1)">
      <defs>
       <path id="DejaVuSans-56" d="M 1831 0 
L 50 4666 
L 709 4666 
L 2188 738 
L 3669 4666 
L 4325 4666 
L 2547 0 
L 1831 0 
z
" transform="scale(0.015625)"/>
       <path id="DejaVuSans-6c" d="M 603 4863 
L 1178 4863 
L 1178 0 
L 603 0 
L 603 4863 
z
" transform="scale(0.015625)"/>
       <path id="DejaVuSans-6f" d="M 1959 3097 
Q 1497 3097 1228 2736 
Q 959 2375 959 1747 
Q 959 1119 1226 758 
Q 1494 397 1959 397 
Q 2419 397 2687 759 
Q 2956 1122 2956 1747 
Q 2956 2369 2687 2733 
Q 2419 3097 1959 3097 
z
M 1959 3584 
Q 2709 3584 3137 3096 
Q 3566 2609 3566 1747 
Q 3566 888 3137 398 
Q 2709 -91 1959 -91 
Q 1206 -91 779 398 
Q 353 888 353 1747 
Q 353 2609 779 3096 
Q 1206 3584 1959 3584 
z
" transform="scale(0.015625)"/>
       <path id="DejaVuSans-63" d="M 3122 3366 
L 3122 2828 
Q 2878 2963 2633 3030 
Q 2388 3097 2138 3097 
Q 1578 3097 1268 2742 
Q 959 2388 959 1747 
Q 959 1106 1268 751 
Q 1578 397 2138 397 
Q 2388 397 2633 464 
Q 2878 531 3122 666 
L 3122 134 
Q 2881 22 2623 -34 
Q 2366 -91 2075 -91 
Q 1284 -91 818 406 
Q 353 903 353 1747 
Q 353 2603 823 3093 
Q 1294 3584 2113 3584 
Q 2378 3584 2631 3529 
Q 2884 3475 3122 3366 
z
" transform="scale(0.015625)"/>
       <path id="DejaVuSans-79" d="M 2059 -325 
Q 1816 -950 1584 -1140 
Q 1353 -1331 966 -1331 
L 506 -1331 
L 506 -850 
L 844 -850 
Q 1081 -850 1212 -737 
Q 1344 -625 1503 -206 
L 1606 56 
L 191 3500 
L 800 3500 
L 1894 763 
L 2988 3500 
L 3597 3500 
L 2059 -325 
z
" transform="scale(0.015625)"/>
       <path id="DejaVuSans-4d" d="M 628 4666 
L 1569 4666 
L 2759 1491 
L 3956 4666 
L 4897 4666 
L 4897 0 
L 4281 0 
L 4281 4097 
L 3078 897 
L 2444 897 
L 1241 4097 
L 1241 0 
L 628 0 
L 628 4666 
z
" transform="scale(0.015625)"/>
       <path id="DejaVuSans-67" d="M 2906 1791 
Q 2906 2416 2648 2759 
Q 2391 3103 1925 3103 
Q 1463 3103 1205 2759 
Q 947 2416 947 1791 
Q 947 1169 1205 825 
Q 1463 481 1925 481 
Q 2391 481 2648 825 
Q 2906 1169 2906 1791 
z
M 3481 434 
Q 3481 -459 3084 -895 
Q 2688 -1331 1869 -1331 
Q 1566 -1331 1297 -1286 
Q 1028 -1241 775 -1147 
L 775 -588 
Q 1028 -725 1275 -790 
Q 1522 -856 1778 -856 
Q 2344 -856 2625 -561 
Q 2906 -266 2906 331 
L 2906 616 
Q 2728 306 2450 153 
Q 2172 0 1784 0 
Q 1141 0 747 490 
Q 353 981 353 1791 
Q 353 2603 747 3093 
Q 1141 3584 1784 3584 
Q 2172 3584 2450 3431 
Q 2728 3278 2906 2969 
L 2906 3500 
L 3481 3500 
L 3481 434 
z
" transform="scale(0.015625)"/>
       <path id="DejaVuSans-6e" d="M 3513 2113 
L 3513 0 
L 2938 0 
L 2938 2094 
Q 2938 2591 2744 2837 
Q 2550 3084 2163 3084 
Q 1697 3084 1428 2787 
Q 1159 2491 1159 1978 
L 1159 0 
L 581 0 
L 581 3500 
L 1159 3500 
L 1159 2956 
Q 1366 3272 1645 3428 
Q 1925 3584 2291 3584 
Q 2894 3584 3203 3211 
Q 3513 2838 3513 2113 
z
" transform="scale(0.015625)"/>
       <path id="DejaVuSans-75" d="M 544 1381 
L 544 3500 
L 1119 3500 
L 1119 1403 
Q 1119 906 1312 657 
Q 1506 409 1894 409 
Q 2359 409 2629 706 
Q 2900 1003 2900 1516 
L 2900 3500 
L 3475 3500 
L 3475 0 
L 2900 0 
L 2900 538 
Q 2691 219 2414 64 
Q 2138 -91 1772 -91 
Q 1169 -91 856 284 
Q 544 659 544 1381 
z
M 1991 3584 
L 1991 3584 
z
" transform="scale(0.015625)"/>
       <path id="DejaVuSans-64" d="M 2906 2969 
L 2906 4863 
L 3481 4863 
L 3481 0 
L 2906 0 
L 2906 525 
Q 2725 213 2448 61 
Q 2172 -91 1784 -91 
Q 1150 -91 751 415 
Q 353 922 353 1747 
Q 353 2572 751 3078 
Q 1150 3584 1784 3584 
Q 2172 3584 2448 3432 
Q 2725 3281 2906 2969 
z
M 947 1747 
Q 947 1113 1208 752 
Q 1469 391 1925 391 
Q 2381 391 2643 752 
Q 2906 1113 2906 1747 
Q 2906 2381 2643 2742 
Q 2381 3103 1925 3103 
Q 1469 3103 1208 2742 
Q 947 2381 947 1747 
z
" transform="scale(0.015625)"/>
      </defs>
      <use xlink:href="#DejaVuSans-56"/>
      <use xlink:href="#DejaVuSans-65" x="60.658203"/>
      <use xlink:href="#DejaVuSans-6c" x="122.181641"/>
      <use xlink:href="#DejaVuSans-6f" x="149.964844"/>
      <use xlink:href="#DejaVuSans-63" x="211.146484"/>
      <use xlink:href="#DejaVuSans-69" x="266.126953"/>
      <use xlink:href="#DejaVuSans-74" x="293.910156"/>
      <use xlink:href="#DejaVuSans-79" x="333.119141"/>
      <use xlink:href="#DejaVuSans-20" x="392.298828"/>
      <use xlink:href="#DejaVuSans-4d" x="424.085938"/>
      <use xlink:href="#DejaVuSans-61" x="510.365234"/>
      <use xlink:href="#DejaVuSans-67" x="571.644531"/>
      <use xlink:href="#DejaVuSans-6e" x="635.121094"/>
      <use xlink:href="#DejaVuSans-69" x="698.5"/>
      <use xlink:href="#DejaVuSans-74" x="726.283203"/>
      <use xlink:href="#DejaVuSans-75" x="765.492188"/>
      <use xlink:href="#DejaVuSans-64" x="828.871094"/>
      <use xlink:href="#DejaVuSans-65" x="892.347656"/>
     </g>
    </g>
   </g>
   <g id="line2d_27">
    <path d="M 74.756149 218.659189 
L 76.472198 218.659189 
L 76.901199 189.497259 
L 77.330215 204.556528 
L 77.759247 191.020517 
L 78.188263 204.656724 
L 78.617264 190.786864 
L 79.04628 190.573949 
L 79.475296 204.641201 
L 79.957932 190.098749 
L 80.386932 188.231867 
L 80.815948 203.137117 
L 81.244965 189.688785 
L 81.673981 204.919301 
L 82.102982 190.462841 
L 82.531982 188.67148 
L 82.961014 203.177444 
L 83.390015 189.387084 
L 83.819031 204.495265 
L 84.248032 189.140828 
L 84.730682 186.96734 
L 85.159683 202.36494 
L 85.588699 187.757848 
L 86.0177 188.462143 
L 86.446716 203.231201 
L 86.875748 186.889582 
L 87.304749 202.114304 
L 87.733765 185.451108 
L 88.162781 186.191971 
L 88.591797 202.337009 
L 89.020798 185.500565 
L 89.449814 201.946164 
L 89.878815 184.643418 
L 90.361465 184.829057 
L 90.790466 201.228994 
L 91.219482 183.656247 
L 91.648483 183.945634 
L 92.077515 201.218188 
L 92.506516 183.098115 
L 92.935516 199.999803 
L 93.364532 182.401687 
L 93.793549 183.146224 
L 94.222565 200.404112 
L 94.651566 181.733706 
L 95.134201 200.125871 
L 95.563217 180.067895 
L 95.992249 179.653483 
L 96.421249 199.486615 
L 96.850266 181.431859 
L 97.279282 180.913545 
L 97.708282 199.058319 
L 98.137299 179.193378 
L 98.566299 198.680033 
L 98.995316 178.279234 
L 99.424332 178.927681 
L 99.853348 198.792654 
L 100.335968 178.195389 
L 100.764984 176.395235 
L 101.194 197.303775 
L 101.623016 176.754152 
L 102.052017 197.520143 
L 102.481033 174.220928 
L 102.910049 176.10869 
L 103.33905 196.755346 
L 103.768066 173.040734 
L 104.197067 196.036158 
L 104.626083 174.348512 
L 105.055115 172.97134 
L 105.53775 195.703902 
L 105.966751 173.6267 
L 106.395782 171.885767 
L 106.824783 195.014399 
L 107.253799 172.414094 
L 107.6828 194.53503 
L 108.111816 168.027378 
L 108.540833 170.133743 
L 108.969833 193.813227 
L 109.398849 168.11764 
L 109.82785 193.829264 
L 110.256882 166.51112 
L 110.739502 164.732125 
L 111.168518 192.912447 
L 111.597519 166.012219 
L 112.02655 166.329726 
L 112.455551 192.050551 
L 112.884552 162.696745 
L 113.313568 191.196335 
L 113.742584 163.407411 
L 114.171616 161.994852 
L 114.600616 190.404515 
L 115.029633 159.339064 
L 115.512268 189.096952 
L 115.941284 160.622238 
L 116.370285 159.009536 
L 116.799301 188.405815 
L 117.228317 155.495791 
L 117.657333 156.233221 
L 118.086334 187.410559 
L 118.515335 155.242065 
L 118.944351 186.796327 
L 119.373367 152.353165 
L 119.802383 154.710324 
L 120.231384 185.716761 
L 120.71402 152.363091 
L 121.143036 150.834195 
L 121.572052 184.829057 
L 122.001053 150.602446 
L 122.430069 184.530989 
L 122.859085 148.104788 
L 123.288086 146.854364 
L 123.717117 182.76002 
L 124.146118 146.928146 
L 124.575134 183.047947 
L 125.00415 146.687551 
L 125.433167 145.164654 
L 125.915787 181.25045 
L 126.344818 143.447339 
L 126.773819 142.222535 
L 127.202835 180.470019 
L 127.631836 142.186636 
L 128.060852 179.74903 
L 128.489868 139.309675 
L 128.918869 139.069938 
L 129.347885 178.402761 
L 129.776886 137.209571 
L 130.205917 179.018588 
L 130.634918 136.569661 
L 131.117554 134.350239 
L 131.54657 176.00908 
L 131.975601 135.717262 
L 132.404587 134.062671 
L 132.833618 174.890375 
L 133.262619 134.083122 
L 133.691635 175.535731 
L 134.120651 130.866725 
L 134.549652 132.783427 
L 134.978668 174.943336 
L 135.407684 130.635526 
L 135.89032 174.410265 
L 136.319321 129.747712 
L 136.748337 128.350835 
L 137.177353 172.907362 
L 137.606369 127.672269 
L 138.03537 128.425711 
L 138.464371 172.917033 
L 138.893387 128.172966 
L 139.322403 173.046585 
L 139.751419 125.930744 
L 140.18042 125.005019 
L 140.609436 171.339093 
L 141.038452 124.744592 
L 141.521103 124.586111 
L 141.950089 171.151175 
L 142.37912 122.332017 
L 142.808136 170.049025 
L 143.237152 121.668283 
L 143.666153 120.052229 
L 144.095154 169.057306 
L 144.524185 119.533862 
L 144.953186 168.597304 
L 145.382202 117.057074 
L 145.811203 117.363609 
L 146.240219 166.984169 
L 146.722855 117.336842 
L 147.151871 116.595309 
L 147.580872 166.394509 
L 148.009888 115.665747 
L 148.438904 166.653698 
L 148.867905 111.654918 
L 149.296921 113.131885 
L 149.725922 165.811409 
L 150.154968 113.967861 
L 150.583954 166.536561 
L 151.012985 112.186171 
L 151.441986 110.825998 
L 151.924637 163.893386 
L 152.353638 109.277179 
L 152.782654 110.786356 
L 153.211655 164.218897 
L 153.640671 108.349334 
L 154.069687 164.385837 
L 154.498688 106.241655 
L 154.927704 106.244147 
L 155.35672 161.897655 
L 155.785736 103.696389 
L 156.214737 162.15633 
L 156.643753 103.005679 
L 157.126389 103.372365 
L 157.555405 160.977547 
L 157.984406 102.939542 
L 158.413422 103.333482 
L 158.842422 159.557677 
L 159.271439 100.483762 
L 159.70047 160.01856 
L 160.129456 101.382875 
L 160.558487 101.465586 
L 160.987503 160.058985 
L 161.416519 99.548909 
L 161.84552 159.363894 
L 162.328156 98.174416 
L 162.757172 98.589815 
L 163.186188 158.768925 
L 163.615189 96.421029 
L 164.044189 96.919956 
L 164.473221 156.279822 
L 164.902222 94.844719 
L 165.331238 155.889755 
L 165.760239 92.640775 
L 166.189255 92.18035 
L 166.618271 155.15805 
L 167.047272 92.828706 
L 167.529907 92.114386 
L 167.958923 154.950092 
L 168.387939 89.451976 
L 168.816971 154.970936 
L 169.245972 89.445501 
L 169.674988 90.767937 
L 170.104004 154.762162 
L 170.533005 90.137461 
L 170.962021 154.394251 
L 171.391022 87.226552 
L 171.820038 86.591435 
L 172.249054 152.392044 
L 172.731689 87.819342 
L 173.16069 86.577663 
L 173.589722 152.157032 
L 174.018723 83.877421 
L 174.447723 150.601728 
L 174.87674 81.699316 
L 175.305756 80.813656 
L 175.734772 151.135001 
L 176.163773 82.698415 
L 176.592789 150.338006 
L 177.02179 79.634318 
L 177.450806 81.193901 
L 177.879822 150.652887 
L 178.362473 82.848861 
L 178.791473 80.555926 
L 179.220505 149.43525 
L 179.649506 78.038336 
L 180.078506 148.294888 
L 180.507523 78.582617 
L 180.936539 79.02538 
L 181.365555 148.141404 
L 181.794556 76.26109 
L 182.223572 147.020437 
L 182.652588 74.275238 
L 183.081589 73.598293 
L 183.564224 146.467213 
L 183.99324 75.462467 
L 184.422256 74.375741 
L 184.851257 145.614366 
L 185.280273 72.731511 
L 185.709274 146.131225 
L 186.13829 73.367981 
L 186.567307 72.630601 
L 186.996338 145.044145 
L 187.425323 72.270132 
L 187.854324 145.009119 
L 188.283371 72.102984 
L 188.766006 70.77467 
L 189.195007 144.632133 
L 189.624023 67.593166 
L 190.05304 66.851727 
L 190.48204 143.045548 
L 190.911057 65.734045 
L 191.340057 142.841079 
L 191.769073 66.323755 
L 192.19809 63.653822 
L 192.627106 140.64779 
L 193.056107 65.001742 
L 193.538757 142.878867 
L 193.967758 67.688847 
L 194.396774 65.344733 
L 194.825775 141.123719 
L 195.254791 61.690251 
L 195.683807 61.793832 
L 196.112808 139.750379 
L 196.54184 62.934496 
L 196.970825 139.547419 
L 197.399872 60.40727 
L 197.828873 58.66424 
L 198.257874 138.2993 
L 198.68689 59.143435 
L 199.16954 58.712857 
L 199.598541 138.273391 
L 200.027542 56.99898 
L 200.456558 139.066568 
L 200.885574 60.031627 
L 201.31459 58.63868 
L 201.743591 137.978379 
L 202.172607 56.656758 
L 202.601624 136.869706 
L 203.030624 56.319906 
L 203.459641 56.836988 
L 203.888641 137.307468 
L 204.371292 55.877305 
L 204.800308 53.984862 
L 205.229309 136.309614 
L 205.65831 53.638004 
L 206.087341 136.973843 
L 206.516357 53.344464 
L 206.945374 52.056199 
L 207.374374 136.668798 
L 207.803391 55.263995 
L 208.232407 136.753173 
L 208.661407 54.276641 
L 209.144043 52.436456 
L 209.573059 135.547693 
L 210.002075 54.012798 
L 210.431076 55.028374 
L 210.860092 135.817163 
L 211.289093 52.093897 
L 211.718124 134.433579 
L 212.147125 50.365221 
L 212.576141 50.190287 
L 213.005142 135.250796 
L 213.434158 50.460378 
L 213.863174 134.241549 
L 214.34581 51.814081 
L 214.774811 51.899514 
L 215.203842 135.108249 
L 215.632858 50.617903 
L 216.061859 49.257331 
L 216.490875 134.141729 
L 216.919876 49.109693 
L 217.348907 134.322358 
L 217.777908 48.789292 
L 218.206924 46.240104 
L 218.635925 133.221214 
L 219.064941 46.195553 
L 219.547577 133.152885 
L 219.976593 48.309804 
L 220.405594 46.241172 
L 220.83461 133.078656 
L 221.263626 48.37461 
L 221.692627 47.379724 
L 222.121643 132.277006 
L 222.550659 45.03759 
L 222.979675 131.410969 
L 223.408676 45.562444 
L 223.837677 45.700464 
L 224.266708 131.858115 
L 224.749359 45.287829 
L 225.17836 43.898764 
L 225.607361 131.037317 
L 226.036377 43.910136 
L 226.465393 131.162653 
L 226.894409 42.359131 
L 227.32341 42.877574 
L 227.752426 131.888478 
L 228.181442 44.918582 
L 228.610443 131.10212 
L 229.039459 43.070422 
L 229.46846 40.881595 
L 229.951111 131.51222 
L 230.380127 44.408933 
L 230.809128 43.791319 
L 231.238129 131.538421 
L 231.66716 41.940331 
L 232.096161 129.728258 
L 232.525177 42.184166 
L 232.954178 40.821912 
L 233.383209 129.663467 
L 233.812225 41.975912 
L 234.241226 130.899128 
L 234.670242 43.264426 
L 235.152878 40.96673 
L 235.581894 129.572747 
L 236.010895 39.873318 
L 236.439911 39.23185 
L 236.868927 129.959581 
L 237.297943 38.952315 
L 237.726944 128.859897 
L 238.15596 39.269744 
L 238.584961 37.528785 
L 239.013977 129.700392 
L 239.442993 38.868988 
L 239.925629 128.483615 
L 240.35463 39.967862 
L 240.783646 39.707547 
L 241.212662 128.968203 
L 241.641663 38.926406 
L 242.070679 35.888354 
L 242.49971 128.015692 
L 242.928726 35.765241 
L 243.357727 127.981554 
L 243.786743 36.374318 
L 244.215744 35.596709 
L 244.64476 127.989776 
L 245.127396 36.808086 
L 245.556412 37.5584 
L 245.985428 128.205362 
L 246.414429 36.753218 
L 246.843445 128.400873 
L 247.272446 38.577407 
L 247.701462 36.303047 
L 248.130478 127.868385 
L 248.559494 35.412114 
L 248.988495 127.581559 
L 249.417496 36.348152 
L 249.846527 34.414125 
L 250.329163 127.754796 
L 250.758163 36.59464 
L 251.187164 36.970859 
L 251.616211 129.156098 
L 252.045212 36.008312 
L 252.474228 127.304594 
L 252.903229 38.004545 
L 253.332245 37.369197 
L 253.761261 128.561018 
L 254.190262 37.680882 
L 254.619278 127.549156 
L 255.048279 37.323837 
L 255.53093 35.130238 
L 255.959946 128.210087 
L 256.388947 37.19724 
L 256.817963 37.401604 
L 257.246979 128.499856 
L 257.67598 37.138921 
L 258.104996 128.187103 
L 258.533997 37.449941 
L 258.963013 36.300418 
L 259.392029 129.294083 
L 259.82103 39.331779 
L 260.303665 128.616689 
L 260.732712 39.156846 
L 261.161713 36.406732 
L 261.590714 128.204764 
L 262.01973 38.065517 
L 262.448746 35.415323 
L 262.877762 127.535116 
L 263.306763 35.357024 
L 263.735779 126.80889 
L 264.16478 38.146849 
L 264.593796 35.434696 
L 265.022812 127.913757 
L 265.505447 38.321826 
L 265.934464 39.939244 
L 266.36348 130.063254 
L 266.79248 37.517715 
L 267.221481 127.823024 
L 267.650497 38.084264 
L 268.079514 37.421046 
L 268.50853 128.659998 
L 268.937531 37.50826 
L 269.366547 127.944265 
L 269.795578 38.092271 
L 270.224579 37.812804 
L 270.707214 129.458724 
L 271.13623 38.71996 
L 271.565247 39.938112 
L 271.994247 130.646427 
L 272.423264 41.524095 
L 272.852264 129.339444 
L 273.281281 39.425221 
L 273.710297 37.793364 
L 274.139313 129.936164 
L 274.568314 40.531653 
L 274.99733 128.809001 
L 275.426346 40.407359 
L 275.908981 38.411785 
L 276.337982 129.721793 
L 276.766998 42.279645 
L 277.196014 41.877965 
L 277.625015 130.635789 
L 278.054031 42.405972 
L 278.483032 130.534741 
L 278.912079 44.316119 
L 279.34108 41.059405 
L 279.770096 130.538627 
L 280.199097 41.554022 
L 280.681747 130.255985 
L 281.110748 44.525699 
L 281.539764 41.149812 
L 281.968765 130.808617 
L 282.397781 43.00298 
L 282.826797 41.285888 
L 283.255798 131.913167 
L 283.684814 41.61116 
L 284.113831 129.404246 
L 284.542847 43.230085 
L 284.971848 43.538562 
L 285.400848 132.257908 
L 285.883499 44.376671 
L 286.312515 42.031355 
L 286.741516 131.899213 
L 287.170517 43.509416 
L 287.599533 131.464982 
L 288.028564 44.244866 
L 288.457581 41.918456 
L 288.886581 131.722039 
L 289.315598 43.314288 
L 289.744614 131.987704 
L 290.173615 46.338471 
L 290.602631 43.197694 
L 291.085266 133.482863 
L 291.514282 48.848965 
L 291.943298 48.990162 
L 292.372299 134.066168 
L 292.8013 45.469215 
L 293.230316 131.834229 
L 293.659332 47.932298 
L 294.088348 47.326656 
L 294.517349 133.32898 
L 294.946365 48.390808 
L 295.375381 132.940203 
L 295.804382 48.780886 
L 296.287018 48.353531 
L 296.716034 133.59868 
L 297.145065 48.718021 
L 297.574066 47.611726 
L 298.003082 135.256065 
L 298.432083 50.447173 
L 298.861115 134.193531 
L 299.290115 48.658932 
L 299.719131 47.048062 
L 300.148132 135.778865 
L 300.577148 50.062942 
L 301.059784 135.297329 
L 301.4888 52.175119 
L 301.917801 49.171593 
L 302.346817 134.244057 
L 302.775833 51.27874 
L 303.204834 50.792813 
L 303.63385 135.535865 
L 304.062866 49.178069 
L 304.491882 134.773942 
L 304.920883 53.638004 
L 305.349899 51.282685 
L 305.7789 135.730224 
L 306.261566 50.179608 
L 306.690567 51.146789 
L 307.119583 136.773158 
L 307.548584 53.2084 
L 307.9776 135.920825 
L 308.406616 54.134995 
L 308.835617 51.281408 
L 309.264633 136.429043 
L 309.693649 53.858248 
L 310.122665 136.698392 
L 310.551666 54.888262 
L 310.980667 53.109124 
L 311.409683 138.51268 
L 311.892334 58.742341 
L 312.321335 58.049212 
L 312.750336 138.761986 
L 313.179367 55.223559 
L 313.608368 137.035327 
L 314.037384 58.430978 
L 314.466385 58.476333 
L 314.895401 140.035413 
L 315.324432 59.092196 
L 315.753433 137.59906 
L 316.182449 59.091897 
L 316.61145 58.405831 
L 317.094101 141.114383 
L 317.523117 61.4376 
L 317.952118 60.575148 
L 318.381119 142.043599 
L 318.81015 63.07059 
L 319.239151 141.165418 
L 319.668167 63.660237 
L 320.097168 60.110459 
L 320.526184 141.930825 
L 320.9552 65.182952 
L 321.384201 142.308648 
L 321.813217 68.627825 
L 322.242233 64.172253 
L 322.671249 143.90462 
L 323.15387 65.876063 
L 323.582886 67.785686 
L 324.011902 145.092564 
L 324.440933 69.003871 
L 324.869934 143.443519 
L 325.29895 69.038086 
L 325.727951 67.979222 
L 326.156967 146.188562 
L 326.585983 73.419818 
L 327.014984 145.436829 
L 327.444 73.718371 
L 327.873016 69.875037 
L 328.355652 147.128843 
L 328.784653 75.707413 
L 329.213669 75.398469 
L 329.642685 148.897378 
L 330.071701 72.250695 
L 330.500702 146.130224 
L 330.929718 73.828479 
L 331.358719 73.99011 
L 331.787735 148.350972 
L 332.216751 76.536914 
L 332.645752 146.894923 
L 333.128403 76.988639 
L 333.557404 76.353624 
L 333.986435 148.461107 
L 334.415436 82.1529 
L 334.844452 78.934672 
L 335.273468 150.639162 
L 335.702484 76.805304 
L 336.131485 148.191017 
L 336.560486 79.43366 
L 336.989517 77.783609 
L 337.418518 150.1481 
L 337.847534 79.779082 
L 338.33017 147.843712 
L 338.759186 81.376905 
L 339.188187 78.694892 
L 339.617203 148.845541 
L 340.046204 82.335643 
L 340.47522 81.115355 
L 340.904236 151.265264 
L 341.333237 79.953446 
L 341.762253 149.968656 
L 342.191269 85.156524 
L 342.6203 84.538954 
L 343.049301 153.240882 
L 343.478317 85.609502 
L 343.960953 83.716377 
L 344.389969 153.205233 
L 344.81897 83.150333 
L 345.247986 152.069822 
L 345.676987 87.631425 
L 346.106018 84.323563 
L 346.535019 151.340496 
L 346.96402 84.83617 
L 347.393036 150.111208 
L 347.822052 86.766618 
L 348.251068 84.327228 
L 348.680069 155.345186 
L 349.162704 90.186396 
L 349.591721 88.951248 
L 350.020737 156.327634 
L 350.449738 88.61957 
L 350.878754 153.979546 
L 351.30777 94.736329 
L 351.736771 90.68656 
L 352.165802 157.017349 
L 352.594803 91.684426 
L 353.023819 153.731777 
L 353.452835 92.113677 
L 353.881851 91.225241 
L 354.364471 157.234801 
L 354.793488 96.269877 
L 355.222504 94.234963 
L 355.65152 159.352014 
L 356.080521 94.098881 
L 356.509537 156.130782 
L 356.938553 99.628449 
L 357.367554 96.064655 
L 357.79657 160.858455 
L 358.225571 100.577879 
L 358.654587 158.091688 
L 359.137222 101.262865 
L 359.566238 98.27228 
L 359.995239 159.330863 
L 360.424255 108.136902 
L 360.853271 102.143996 
L 361.282303 162.145413 
L 361.711304 105.397572 
L 362.14032 161.212085 
L 362.569336 102.989765 
L 362.998337 108.062713 
L 363.427353 164.059826 
L 363.856354 111.575438 
L 364.28537 167.100598 
L 364.714386 114.58999 
L 365.197021 111.687305 
L 365.626022 167.580451 
L 366.055054 118.341048 
L 366.484055 118.484166 
L 366.913071 170.236446 
L 367.342072 121.09545 
L 367.771088 170.786028 
L 368.200104 126.196442 
L 368.629105 125.29142 
L 369.058121 172.479664 
L 369.487122 128.072252 
L 369.969788 174.571806 
L 370.398773 132.642146 
L 370.827805 134.497855 
L 371.256821 177.672741 
L 371.685837 138.075552 
L 372.114838 137.223954 
L 372.543839 178.934157 
L 372.972855 140.190878 
L 373.401871 180.4294 
L 373.830887 141.447947 
L 374.259888 141.83371 
L 374.688904 181.656719 
L 375.11792 146.907888 
L 375.600555 147.430217 
L 376.029556 183.431701 
L 376.458572 151.011876 
L 376.887589 185.485231 
L 377.316589 152.240009 
L 377.745605 155.971348 
L 378.174606 187.275766 
L 378.603622 158.715223 
L 379.032639 187.321104 
L 379.46167 159.167651 
L 379.890671 163.051036 
L 380.373322 191.169539 
L 380.802322 164.320797 
L 381.231339 165.039966 
L 381.660339 192.938253 
L 382.089355 170.450242 
L 382.518372 193.819043 
L 382.947372 172.203807 
L 383.376389 174.049884 
L 383.805389 196.207286 
L 384.234421 176.102213 
L 384.663422 199.132005 
L 385.092438 180.696845 
L 385.521439 181.027333 
L 386.004089 200.185773 
L 386.43309 184.103204 
L 386.862106 185.613788 
L 387.291107 203.198798 
L 387.720123 187.72515 
L 388.149155 203.872681 
L 388.57814 191.337702 
L 389.007172 191.846496 
L 389.436188 205.503911 
L 389.865204 195.701075 
L 390.294205 207.90982 
L 390.77684 198.019033 
L 391.205856 199.64148 
L 391.634872 209.774519 
L 392.063873 203.619979 
L 392.492889 204.724954 
L 392.92189 212.127724 
L 393.350906 206.602093 
L 393.779922 213.196196 
L 394.208923 210.445045 
L 394.637939 210.902124 
L 395.066956 215.321767 
L 395.495972 213.586265 
L 395.978592 215.271147 
L 396.407608 218.315808 
L 396.836624 218.043701 
L 397.265656 218.678623 
L 397.694656 218.963131 
L 398.123642 218.756398 
L 398.552673 218.866535 
L 398.981689 219.119248 
L 399.410706 218.788793 
L 399.410706 218.788793 
" clip-path="url(#p124a120866)" style="fill: none; stroke: #1f77b4; stroke-width: 1.5; stroke-linecap: square"/>
   </g>
   <g id="line2d_28">
    <path d="M 74.756149 218.597037 
L 76.472198 214.750738 
L 77.759247 204.633895 
L 78.617264 199.795639 
L 79.475296 196.586389 
L 80.386932 194.74526 
L 80.815948 194.218771 
L 81.673981 193.676063 
L 82.531982 193.515967 
L 85.159683 193.332084 
L 86.446716 193.051709 
L 87.733765 192.546538 
L 89.449814 191.630765 
L 91.648483 190.417046 
L 94.222565 189.035174 
L 101.623016 184.520984 
L 104.197067 182.610685 
L 108.111816 179.367474 
L 112.884552 174.445472 
L 114.600616 172.358141 
L 118.944351 166.633708 
L 120.231384 165.108219 
L 122.001053 163.278954 
L 124.146118 160.709724 
L 131.117554 151.644394 
L 132.404587 150.284664 
L 134.978668 147.925687 
L 138.03537 144.934975 
L 139.751419 143.392674 
L 141.521103 141.787049 
L 142.808136 140.522163 
L 144.953186 137.931003 
L 146.240219 136.412039 
L 150.583954 132.58514 
L 152.353638 130.742732 
L 154.498688 128.582283 
L 157.126389 125.700169 
L 157.984406 125.005713 
L 160.558487 123.27314 
L 161.416519 122.418938 
L 165.760239 117.248718 
L 166.618271 116.477457 
L 167.529907 115.947049 
L 168.816971 115.263647 
L 170.104004 114.298686 
L 170.962021 113.422307 
L 172.249054 111.957281 
L 177.879822 107.060308 
L 180.078506 105.66989 
L 181.794556 104.037444 
L 183.081589 102.66853 
L 184.422256 101.814469 
L 185.709274 101.183801 
L 186.996338 100.229159 
L 187.854324 99.34713 
L 189.195007 97.855123 
L 190.48204 96.737155 
L 192.19809 95.340858 
L 193.538757 94.119131 
L 195.683807 91.800625 
L 198.257874 89.683779 
L 199.16954 89.380795 
L 200.456558 89.077229 
L 201.743591 88.42817 
L 203.030624 87.410811 
L 203.888641 86.794906 
L 204.800308 86.436137 
L 207.374374 85.755407 
L 208.232407 85.3854 
L 209.573059 84.764368 
L 210.860092 84.47591 
L 211.718124 84.230886 
L 213.434158 83.467693 
L 215.203842 82.442532 
L 216.490875 82.011099 
L 217.348907 81.670919 
L 219.064941 80.617464 
L 221.692627 78.827367 
L 224.749359 77.632256 
L 227.32341 77.494158 
L 228.181442 77.286379 
L 229.951111 76.626524 
L 230.809128 76.550953 
L 231.66716 76.530655 
L 232.954178 76.17312 
L 233.812225 75.799126 
L 235.581894 74.722436 
L 236.439911 74.451376 
L 237.726944 74.190918 
L 239.013977 73.674088 
L 239.925629 73.128342 
L 241.212662 72.159969 
L 242.070679 71.734128 
L 244.215744 71.171091 
L 245.127396 71.288679 
L 246.843445 71.843669 
L 248.130478 71.804578 
L 250.329163 71.375703 
L 251.187164 71.598125 
L 252.474228 72.068493 
L 253.761261 72.203714 
L 254.619278 72.092513 
L 255.53093 71.93133 
L 256.388947 72.016679 
L 258.104996 72.569778 
L 259.392029 72.555214 
L 260.303665 72.237805 
L 261.590714 71.546837 
L 262.448746 71.34128 
L 264.16478 71.376625 
L 265.022812 71.621187 
L 265.934464 72.108075 
L 266.79248 72.627895 
L 267.650497 72.914696 
L 268.937531 73.139638 
L 270.224579 73.181881 
L 271.13623 73.464241 
L 272.852264 74.328249 
L 274.568314 74.698676 
L 275.908981 74.827326 
L 276.766998 75.188397 
L 278.483032 76.164987 
L 279.34108 76.323544 
L 280.199097 76.291589 
L 282.397781 75.756027 
L 283.684814 75.927589 
L 284.971848 76.135889 
L 285.883499 76.507129 
L 288.457581 78.000241 
L 289.744614 78.548511 
L 291.085266 79.104538 
L 293.659332 80.654346 
L 294.946365 80.996555 
L 296.716034 81.165866 
L 297.574066 81.535532 
L 298.861115 82.16754 
L 300.148132 82.47285 
L 301.059784 82.47053 
L 302.346817 82.334777 
L 303.204834 82.465629 
L 305.7789 83.275746 
L 306.690567 83.878937 
L 307.9776 84.925485 
L 310.122665 86.210627 
L 310.980667 86.649645 
L 312.321335 87.66111 
L 313.608368 88.755761 
L 315.324432 89.826005 
L 316.61145 90.476451 
L 317.523117 91.178311 
L 320.526184 94.159457 
L 323.582886 96.791733 
L 325.29895 98.743423 
L 326.585983 99.956156 
L 331.787735 103.6311 
L 333.128403 104.271537 
L 334.415436 104.98546 
L 335.702484 105.781831 
L 336.989517 106.249698 
L 338.33017 106.551467 
L 339.188187 106.735741 
L 340.046204 107.150736 
L 343.960953 110.009553 
L 345.247986 110.886843 
L 347.822052 112.233915 
L 348.680069 112.933201 
L 349.591721 113.86287 
L 350.878754 115.269401 
L 352.165802 116.318424 
L 354.364471 117.811799 
L 355.65152 119.259374 
L 358.225571 122.247755 
L 359.995239 124.22581 
L 361.282303 126.321196 
L 362.998337 129.650936 
L 365.626022 135.623883 
L 367.771088 141.671193 
L 369.969788 147.485617 
L 373.401871 155.868445 
L 375.600555 161.219769 
L 379.890671 172.635443 
L 380.802322 174.97703 
L 386.004089 189.383619 
L 394.637939 212.706256 
L 395.495972 214.607709 
L 396.836624 216.891887 
L 397.694656 217.948035 
L 398.552673 218.645636 
L 399.410706 219.062663 
L 399.410706 219.062663 
" clip-path="url(#p124a120866)" style="fill: none; stroke: #ff7f0e; stroke-width: 1.5; stroke-linecap: square"/>
   </g>
   <g id="line2d_29">
    <path d="M 74.756149 218.72134 
L 76.472198 222.567639 
L 76.901199 197.087272 
L 77.330215 215.546057 
L 77.759247 205.045811 
L 78.188263 221.311261 
L 78.617264 209.650414 
L 79.04628 211.234247 
L 79.475296 226.714 
L 79.957932 213.240836 
L 80.386932 212.145796 
L 80.815948 227.577534 
L 81.244965 214.467838 
L 81.673981 229.902426 
L 82.102982 215.557084 
L 82.531982 213.814702 
L 82.961014 228.335148 
L 83.390015 214.551305 
L 83.819031 229.676885 
L 84.248032 214.357103 
L 84.730682 212.232804 
L 85.159683 227.692045 
L 85.588699 213.160561 
L 86.0177 213.956585 
L 86.446716 228.838681 
L 86.875748 212.638248 
L 87.304749 228.033525 
L 87.733765 211.563759 
L 88.162781 212.512444 
L 88.591797 228.877695 
L 89.020798 212.277308 
L 89.449814 228.974587 
L 89.878815 211.931035 
L 90.361465 212.371865 
L 90.790466 229.016638 
L 91.219482 211.677082 
L 91.648483 212.187777 
L 92.077515 229.675024 
L 92.506516 211.773196 
L 92.935516 228.902787 
L 93.364532 211.540667 
L 93.793549 212.525097 
L 94.222565 230.028127 
L 94.651566 211.613697 
L 95.134201 230.273162 
L 95.563217 210.485299 
L 95.992249 210.332282 
L 96.421249 230.414503 
L 96.850266 212.600606 
L 97.279282 212.319383 
L 97.708282 230.704735 
L 98.137299 211.093639 
L 98.566299 230.851378 
L 98.995316 210.73338 
L 99.424332 211.666686 
L 99.853348 231.814308 
L 100.335968 211.497289 
L 100.764984 209.973335 
L 101.194 231.157372 
L 101.623016 210.892357 
L 102.052017 231.957972 
L 102.481033 208.969576 
L 102.910049 211.171714 
L 103.33905 232.136098 
L 103.768066 208.749082 
L 104.197067 232.084662 
L 104.626083 210.744085 
L 105.055115 209.711739 
L 105.53775 232.784186 
L 105.966751 211.045097 
L 106.395782 209.643275 
L 106.824783 233.119811 
L 107.253799 210.889181 
L 107.6828 233.40773 
L 108.111816 207.319092 
L 108.540833 209.854832 
L 108.969833 233.972358 
L 109.398849 208.729968 
L 109.82785 234.910867 
L 110.256882 208.066953 
L 110.739502 206.751223 
L 111.168518 235.37796 
L 111.597519 208.911709 
L 112.02655 209.656675 
L 112.455551 235.810054 
L 112.884552 206.910461 
L 113.313568 235.895516 
L 113.742584 208.620666 
L 114.171616 207.742421 
L 114.600616 236.705562 
L 115.029633 206.218985 
L 115.512268 236.581582 
L 115.941284 208.725529 
L 116.370285 207.72715 
L 116.799301 237.721495 
L 117.228317 205.387585 
L 117.657333 206.674591 
L 118.086334 238.381213 
L 118.515335 206.737878 
L 118.944351 238.821807 
L 119.373367 204.905592 
L 119.802383 207.772841 
L 120.231384 239.267731 
L 120.71402 206.383741 
L 121.143036 205.307624 
L 121.572052 239.749 
L 122.001053 205.982681 
L 122.430069 240.397209 
L 122.859085 204.477361 
L 123.288086 203.740899 
L 123.717117 240.167844 
L 124.146118 204.87761 
L 124.575134 241.566575 
L 125.00415 205.792925 
L 125.433167 204.854596 
L 125.915787 241.511098 
L 126.344818 204.261903 
L 126.773819 203.572228 
L 127.202835 242.345625 
L 127.631836 204.59987 
L 128.060852 242.723569 
L 128.489868 202.86186 
L 128.918869 203.200323 
L 129.347885 243.108843 
L 129.776886 202.498581 
L 130.205917 244.899684 
L 130.634918 203.0349 
L 131.117554 201.365034 
L 131.54657 243.524746 
L 131.975601 203.68516 
L 132.404587 202.437196 
L 132.833618 243.641071 
L 133.262619 203.206882 
L 133.691635 245.047982 
L 134.120651 200.78139 
L 134.549652 203.104154 
L 134.978668 245.676837 
L 135.407684 201.803606 
L 135.89032 246.039135 
L 136.319321 201.84657 
L 136.748337 200.901971 
L 137.177353 245.879402 
L 137.606369 201.034227 
L 138.03537 202.149924 
L 138.464371 246.99249 
L 138.893387 202.61678 
L 139.322403 247.8909 
L 139.751419 201.197259 
L 140.18042 200.691811 
L 140.609436 247.432582 
L 141.038452 201.232469 
L 141.521103 201.458251 
L 141.950089 248.41148 
L 142.37912 200.009567 
L 142.808136 248.186051 
L 143.237152 200.297333 
L 143.666153 199.186134 
L 144.095154 248.704097 
L 144.524185 199.711929 
L 144.953186 249.325489 
L 145.382202 198.331918 
L 145.811203 199.149808 
L 146.240219 249.231318 
L 146.722855 199.995751 
L 147.151871 199.620197 
L 147.580872 249.75683 
L 148.009888 199.367739 
L 148.438904 250.7165 
L 148.867905 196.094309 
L 149.296921 197.949287 
L 149.725922 251.013487 
L 150.154968 199.584888 
L 150.583954 252.61061 
L 151.012985 198.743053 
L 151.441986 197.860168 
L 151.924637 251.381495 
L 152.353638 197.193635 
L 152.782654 199.106429 
L 153.211655 252.934671 
L 153.640671 197.4836 
L 154.069687 253.977673 
L 154.498688 196.318561 
L 154.927704 196.809236 
L 155.35672 252.946736 
L 155.785736 195.236155 
L 156.214737 254.194725 
L 156.643753 195.52801 
L 157.126389 196.331385 
L 157.555405 254.31223 
L 157.984406 196.593018 
L 158.413422 197.255121 
L 158.842422 253.719053 
L 159.271439 194.895095 
L 159.70047 254.717589 
L 160.129456 196.409843 
L 160.558487 196.851635 
L 160.987503 255.842222 
L 161.416519 195.789159 
L 161.84552 256.127518 
L 162.328156 195.504658 
L 162.757172 196.492609 
L 163.186188 257.228692 
L 163.615189 195.415222 
L 164.044189 196.417946 
L 164.473221 256.257854 
L 164.902222 195.3014 
L 165.331238 256.831252 
L 165.760239 194.051246 
L 166.189255 194.009181 
L 166.618271 257.339781 
L 167.047272 195.302591 
L 167.529907 194.826526 
L 167.958923 257.870293 
L 168.387939 192.590806 
L 168.816971 258.366478 
L 169.245972 193.135356 
L 169.674988 194.777208 
L 170.104004 259.122664 
L 170.533005 194.904938 
L 170.962021 259.631133 
L 171.391022 192.96792 
L 171.820038 192.829054 
L 172.249054 259.093952 
L 172.731689 194.949902 
L 173.16069 194.099043 
L 173.589722 260.045301 
L 174.018723 192.138527 
L 174.447723 259.255995 
L 174.87674 190.75181 
L 175.305756 190.244295 
L 175.734772 260.924778 
L 176.163773 192.854431 
L 176.592789 260.880466 
L 177.02179 190.56429 
L 177.450806 192.479608 
L 177.879822 262.251768 
L 178.362473 194.727128 
L 178.791473 192.686774 
L 179.220505 261.813153 
L 179.649506 190.695172 
L 180.078506 261.284187 
L 180.507523 191.948316 
L 180.936539 192.787989 
L 181.365555 262.317757 
L 181.794556 190.882834 
L 182.223572 262.117704 
L 182.652588 189.844265 
L 183.081589 189.588952 
L 183.564224 262.808213 
L 183.99324 192.085858 
L 184.422256 191.22046 
L 184.851257 262.646027 
L 185.280273 189.962655 
L 185.709274 263.606612 
L 186.13829 191.13184 
L 186.567307 190.711135 
L 186.996338 263.474175 
L 187.425323 191.107763 
L 187.854324 264.321178 
L 188.283371 191.928874 
L 188.766006 191.107495 
L 189.195007 265.436198 
L 189.624023 188.82163 
L 190.05304 188.448087 
L 190.48204 264.967581 
L 190.911057 187.979098 
L 191.340057 265.433021 
L 191.769073 189.28021 
L 192.19809 186.972154 
L 192.627106 264.330806 
L 193.056107 189.085143 
L 193.538757 267.418924 
L 193.967758 192.726069 
L 194.396774 190.881344 
L 194.825775 267.137099 
L 195.254791 188.14777 
L 195.683807 188.652396 
L 196.112808 266.979009 
L 196.54184 190.536856 
L 196.970825 267.542515 
L 197.399872 188.788651 
L 197.828873 187.380034 
L 198.257874 267.274709 
L 198.68689 188.30472 
L 199.16954 187.991251 
L 199.598541 267.628698 
L 200.027542 186.443301 
L 200.456558 268.648527 
L 200.885574 189.799951 
L 201.31459 188.623201 
L 201.743591 268.209398 
L 202.172607 187.185148 
L 202.601624 267.748702 
L 203.030624 187.568283 
L 203.459641 188.422862 
L 203.888641 269.17175 
L 204.371292 187.955443 
L 204.800308 186.207913 
L 205.229309 268.627742 
L 205.65831 186.045882 
L 206.087341 269.495454 
L 206.516357 185.996824 
L 206.945374 184.834063 
L 207.374374 269.57258 
L 207.803391 188.327643 
L 208.232407 270.026961 
L 208.661407 187.785799 
L 209.144043 186.160336 
L 209.573059 269.442514 
L 210.002075 188.035744 
L 210.431076 189.139677 
L 210.860092 270.000441 
L 211.289093 186.375443 
L 211.718124 268.861881 
L 212.147125 184.972946 
L 212.576141 184.980272 
L 213.005142 270.225779 
L 213.434158 185.651874 
L 213.863174 269.694562 
L 214.34581 187.549522 
L 214.774811 187.89623 
L 215.203842 271.324906 
L 215.632858 187.013094 
L 216.061859 185.788975 
L 216.490875 270.789818 
L 216.919876 185.900586 
L 217.348907 271.310628 
L 217.777908 186.017719 
L 218.206924 183.721471 
L 218.635925 270.965157 
L 219.064941 184.237277 
L 219.547577 271.538741 
L 219.976593 187.059676 
L 220.405594 185.330096 
L 220.83461 272.460257 
L 221.263626 188.003754 
L 221.692627 187.211546 
L 222.121643 272.285812 
L 222.550659 185.236325 
L 222.979675 271.829616 
L 223.408676 186.206578 
L 223.837677 186.53163 
L 224.266708 272.816705 
L 224.749359 186.314762 
L 225.17836 184.935259 
L 225.607361 272.048092 
L 226.036377 184.908301 
L 226.465393 272.191475 
L 226.894409 183.452234 
L 227.32341 184.042605 
L 227.752426 273.13636 
L 228.181442 186.291391 
L 228.610443 272.653293 
L 229.039459 184.821145 
L 229.46846 182.801001 
L 229.951111 273.544884 
L 230.380127 186.502669 
L 230.809128 185.899554 
L 231.238129 273.641928 
L 231.66716 184.068864 
L 232.096161 271.939764 
L 232.525177 184.524388 
L 232.954178 183.307981 
L 233.383209 272.312945 
L 233.812225 184.835975 
L 234.241226 274.029635 
L 234.670242 186.695684 
L 235.152878 184.676889 
L 235.581894 273.509499 
L 236.010895 183.977244 
L 236.439911 183.439663 
L 236.868927 274.231627 
L 237.297943 183.300148 
L 237.726944 273.328168 
L 238.15596 183.895748 
L 238.584961 182.325459 
L 239.013977 274.685493 
L 239.442993 184.093836 
L 239.925629 274.014462 
L 240.35463 185.842851 
L 240.783646 185.914838 
L 241.212662 275.467422 
L 241.641663 185.668545 
L 242.070679 182.813415 
L 242.49971 275.075715 
L 242.928726 182.949848 
L 243.357727 275.298605 
L 243.786743 183.807312 
L 244.215744 183.084807 
L 244.64476 275.454228 
L 245.127396 184.178596 
L 245.556412 184.775212 
L 245.985428 275.243256 
L 246.414429 183.645232 
L 246.843445 275.216392 
L 247.272446 185.377521 
L 247.701462 183.118332 
L 248.130478 274.722995 
L 248.559494 182.349729 
L 248.988495 274.647121 
L 249.417496 183.547193 
L 249.846527 181.69511 
L 250.329163 275.038282 
L 250.758163 183.802716 
L 251.187164 184.031922 
L 251.616211 276.030762 
L 252.045212 182.71418 
L 252.474228 273.89529 
L 252.903229 184.527439 
L 253.332245 183.84664 
L 253.761261 275.016493 
L 254.190262 184.16428 
L 254.619278 274.115832 
L 255.048279 183.991101 
L 255.53093 181.858096 
L 255.959946 274.929662 
L 256.388947 183.839749 
L 256.817963 183.903013 
L 257.246979 274.827241 
L 257.67598 183.316498 
L 258.104996 274.276514 
L 258.533997 183.508186 
L 258.963013 182.361616 
L 259.392029 275.398058 
L 259.82103 185.551802 
L 260.303665 275.038073 
L 260.732712 185.829904 
L 261.161713 183.322346 
L 261.590714 275.317116 
L 262.01973 185.315948 
L 262.448746 182.733231 
L 262.877762 274.862474 
L 263.306763 182.674727 
L 263.735779 274.118493 
L 264.16478 185.429413 
L 264.593796 182.631412 
L 265.022812 274.951758 
L 265.505447 185.14016 
L 265.934464 186.490357 
L 266.36348 276.334125 
L 266.79248 183.549008 
L 267.221481 273.684019 
L 267.650497 183.828757 
L 268.079514 183.068892 
L 268.50853 274.22533 
L 268.937531 183.02781 
L 269.366547 273.459924 
L 269.795578 183.611089 
L 270.224579 183.290111 
L 270.707214 274.826663 
L 271.13623 183.914907 
L 271.565247 184.903804 
L 271.994247 275.358784 
L 272.423264 186.014452 
L 272.852264 273.670384 
L 273.281281 183.644172 
L 273.710297 181.912379 
L 274.139313 273.961055 
L 274.568314 184.492166 
L 274.99733 272.741696 
L 275.426346 184.314492 
L 275.908981 182.243648 
L 276.337982 273.405958 
L 276.766998 185.750437 
L 277.196014 185.080721 
L 277.625015 273.550881 
L 278.054031 185.072333 
L 278.483032 273.028942 
L 278.912079 186.709073 
L 279.34108 183.39505 
L 279.770096 272.858034 
L 280.199097 183.921621 
L 280.681747 272.742418 
L 281.110748 187.167593 
L 281.539764 183.92964 
L 281.968765 273.677947 
L 282.397781 185.906141 
L 282.826797 184.161452 
L 283.255798 274.717658 
L 283.684814 184.342759 
L 284.113831 272.081969 
L 284.542847 185.851826 
L 284.971848 186.061862 
L 285.400848 274.623363 
L 285.883499 186.528731 
L 286.312515 183.915946 
L 286.741516 273.485563 
L 287.170517 184.814386 
L 287.599533 272.533623 
L 288.028564 185.108794 
L 288.457581 182.577404 
L 288.886581 272.171995 
L 289.315598 183.577512 
L 289.744614 272.098381 
L 290.173615 186.304797 
L 290.602631 182.984367 
L 291.085266 273.037513 
L 291.514282 188.128403 
L 291.943298 187.960785 
L 292.372299 272.721809 
L 292.8013 183.849097 
L 293.230316 270.001786 
L 293.659332 185.937141 
L 294.088348 185.189664 
L 294.517349 271.069618 
L 294.946365 186.053441 
L 295.375381 270.576433 
L 295.804382 186.40983 
L 296.287018 185.943538 
L 296.716034 271.092002 
L 297.145065 186.05533 
L 297.574066 184.735382 
L 298.003082 272.135801 
L 298.432083 187.10535 
L 298.861115 270.685179 
L 299.290115 185.029692 
L 299.719131 183.316469 
L 300.148132 271.965203 
L 300.577148 186.21822 
L 301.059784 271.485988 
L 301.4888 188.433179 
L 301.917801 185.484644 
L 302.346817 270.568469 
L 302.775833 187.564733 
L 303.204834 186.986372 
L 303.63385 271.600608 
L 304.062866 185.11671 
L 304.491882 270.608519 
L 304.920883 189.369803 
L 305.349899 186.871477 
L 305.7789 271.113666 
L 306.261566 185.293488 
L 306.690567 185.927041 
L 307.119583 271.181472 
L 307.548584 187.257369 
L 307.9776 269.654528 
L 308.406616 187.587774 
L 308.835617 184.458917 
L 309.264633 269.333714 
L 309.693649 186.51678 
L 310.122665 269.146953 
L 310.551666 187.135289 
L 310.980667 185.118667 
L 311.409683 270.230361 
L 311.892334 190.120593 
L 312.321335 189.04729 
L 312.750336 269.362833 
L 313.179367 185.451799 
L 313.608368 266.938754 
L 314.037384 188.045799 
L 314.466385 187.81335 
L 314.895401 269.104653 
L 315.324432 187.92538 
L 315.753433 266.230923 
L 316.182449 187.523089 
L 316.61145 186.588569 
L 317.094101 268.979253 
L 317.523117 188.918477 
L 317.952118 187.611114 
L 318.381119 268.600202 
L 318.81015 189.161408 
L 319.239151 266.832731 
L 319.668167 188.935623 
L 320.097168 184.997367 
L 320.526184 266.430557 
L 320.9552 189.322921 
L 321.384201 266.129035 
L 321.813217 192.144708 
L 322.242233 187.357768 
L 322.671249 266.706245 
L 323.15387 188.238171 
L 323.582886 189.653142 
L 324.011902 266.433621 
L 324.440933 189.83192 
L 324.869934 263.799255 
L 325.29895 188.953851 
L 325.727951 187.465436 
L 326.156967 265.260381 
L 326.585983 192.122851 
L 327.014984 263.830799 
L 327.444 191.838949 
L 327.873016 187.715181 
L 328.355652 264.660332 
L 328.784653 192.903645 
L 329.213669 192.235495 
L 329.642685 265.369295 
L 330.071701 188.384675 
L 330.500702 261.968423 
L 330.929718 189.396777 
L 331.358719 189.288166 
L 331.787735 263.379061 
L 332.216751 191.320996 
L 332.645752 261.472626 
L 333.128403 191.376291 
L 333.557404 190.532244 
L 333.986435 262.398961 
L 334.415436 195.826628 
L 334.844452 192.328017 
L 335.273468 263.755806 
L 335.702484 189.682662 
L 336.131485 260.88273 
L 336.560486 191.978421 
L 336.989517 190.1931 
L 337.418518 262.429984 
L 337.847534 191.959141 
L 338.33017 259.951433 
L 338.759186 193.413308 
L 339.188187 190.61834 
L 339.617203 260.592939 
L 340.046204 193.844095 
L 340.47522 192.325066 
L 340.904236 262.137634 
L 341.333237 190.488798 
L 341.762253 260.191061 
L 342.191269 195.082958 
L 342.6203 194.163713 
L 343.049301 262.550248 
L 343.478317 194.594036 
L 343.960953 192.366013 
L 344.389969 261.523453 
L 344.81897 191.171015 
L 345.247986 259.842168 
L 345.676987 195.189016 
L 346.106018 191.669298 
L 346.535019 258.46486 
L 346.96402 191.738205 
L 347.393036 256.788874 
L 347.822052 193.191892 
L 348.251068 190.438259 
L 348.680069 261.071174 
L 349.162704 195.469644 
L 349.591721 193.747566 
L 350.020737 260.62044 
L 350.449738 192.434715 
L 350.878754 257.369335 
L 351.30777 197.749076 
L 351.736771 193.351216 
L 352.165802 259.358114 
L 352.594803 193.73575 
L 353.023819 255.523279 
L 353.452835 193.64203 
L 353.881851 192.445025 
L 354.364471 258.08219 
L 354.793488 196.684236 
L 355.222504 194.1603 
L 355.65152 258.751829 
L 356.080521 192.971644 
L 356.509537 254.496263 
L 356.938553 197.50125 
L 357.367554 193.443377 
L 357.79657 257.743801 
L 358.225571 196.989313 
L 358.654587 254.05185 
L 359.137222 196.766808 
L 359.566238 193.274277 
L 359.995239 253.764241 
L 360.424255 201.934623 
L 360.853271 195.239448 
L 361.282303 254.483406 
L 361.711304 196.947258 
L 362.14032 251.95397 
L 362.569336 192.891001 
L 362.998337 197.070966 
L 363.427353 252.127727 
L 363.856354 198.682341 
L 364.28537 253.241536 
L 364.714386 199.747186 
L 365.197021 195.814241 
L 365.626022 250.615756 
L 366.055054 200.226011 
L 366.484055 199.165733 
L 366.913071 249.680608 
L 367.342072 199.301003 
L 367.771088 247.774023 
L 368.200104 201.987716 
L 368.629105 199.895688 
L 369.058121 245.90844 
L 369.487122 200.353992 
L 369.969788 245.745378 
L 370.398773 202.738285 
L 370.827805 203.52955 
L 371.256821 245.645175 
L 371.685837 204.99453 
L 372.114838 203.092017 
L 372.543839 243.757296 
L 372.972855 203.987534 
L 373.401871 243.220144 
L 373.830887 203.235203 
L 374.259888 202.592579 
L 374.688904 241.34786 
L 375.11792 205.491761 
L 375.600555 204.869637 
L 376.029556 239.701626 
L 376.458572 206.109876 
L 376.887589 239.424227 
L 377.316589 205.031843 
L 377.745605 207.619172 
L 378.174606 237.783284 
L 378.603622 208.095361 
L 379.032639 235.587958 
L 379.46167 206.321852 
L 379.890671 209.074782 
L 380.373322 236.036231 
L 380.802322 208.002956 
L 381.231339 207.509276 
L 381.660339 234.173995 
L 382.089355 210.449045 
L 382.518372 232.590069 
L 382.947372 209.756402 
L 383.376389 210.387881 
L 383.805389 231.335703 
L 384.234421 210.034702 
L 384.663422 231.887589 
L 385.092438 212.290434 
L 385.521439 211.463389 
L 386.004089 229.461343 
L 386.43309 212.212669 
L 386.862106 212.549437 
L 387.291107 228.955104 
L 387.720123 212.303057 
L 388.149155 227.276015 
L 388.57814 213.566471 
L 389.007172 212.89423 
L 389.436188 225.362451 
L 389.865204 214.366644 
L 390.294205 225.382606 
L 390.77684 214.298651 
L 391.205856 214.724807 
L 391.634872 223.659336 
L 392.063873 216.30922 
L 392.492889 216.227194 
L 392.92189 222.45819 
L 393.350906 215.784363 
L 393.779922 221.261736 
L 394.208923 217.432011 
L 394.637939 216.855057 
L 395.066956 220.292971 
L 395.495972 217.637745 
L 395.978592 218.475354 
L 396.407608 220.755646 
L 396.836624 219.811002 
L 397.265656 219.869913 
L 397.694656 219.674284 
L 398.123642 219.077942 
L 398.552673 218.880088 
L 398.981689 218.895252 
L 399.410706 218.385319 
L 399.410706 218.385319 
" clip-path="url(#p124a120866)" style="fill: none; stroke: #2ca02c; stroke-width: 1.5; stroke-linecap: square"/>
   </g>
   <g id="patch_3">
    <path d="M 58.523438 288.430125 
L 58.523438 22.318125 
" style="fill: none; stroke: #000000; stroke-width: 0.8; stroke-linejoin: miter; stroke-linecap: square"/>
   </g>
   <g id="patch_4">
    <path d="M 415.643438 288.430125 
L 415.643438 22.318125 
" style="fill: none; stroke: #000000; stroke-width: 0.8; stroke-linejoin: miter; stroke-linecap: square"/>
   </g>
   <g id="patch_5">
    <path d="M 58.523422 288.430125 
L 415.643433 288.430125 
" style="fill: none; stroke: #000000; stroke-width: 0.8; stroke-linejoin: miter; stroke-linecap: square"/>
   </g>
   <g id="patch_6">
    <path d="M 58.523422 22.318125 
L 415.643433 22.318125 
" style="fill: none; stroke: #000000; stroke-width: 0.8; stroke-linejoin: miter; stroke-linecap: square"/>
   </g>
   <g id="text_16">
    <!-- Raw, Filtered, and High Frequency signal of Jnt Vel 1 -->
    <g transform="translate(80.9175 16.318125) scale(0.12 -0.12)">
     <defs>
      <path id="DejaVuSans-52" d="M 2841 2188 
Q 3044 2119 3236 1894 
Q 3428 1669 3622 1275 
L 4263 0 
L 3584 0 
L 2988 1197 
Q 2756 1666 2539 1819 
Q 2322 1972 1947 1972 
L 1259 1972 
L 1259 0 
L 628 0 
L 628 4666 
L 2053 4666 
Q 2853 4666 3247 4331 
Q 3641 3997 3641 3322 
Q 3641 2881 3436 2590 
Q 3231 2300 2841 2188 
z
M 1259 4147 
L 1259 2491 
L 2053 2491 
Q 2509 2491 2742 2702 
Q 2975 2913 2975 3322 
Q 2975 3731 2742 3939 
Q 2509 4147 2053 4147 
L 1259 4147 
z
" transform="scale(0.015625)"/>
      <path id="DejaVuSans-77" d="M 269 3500 
L 844 3500 
L 1563 769 
L 2278 3500 
L 2956 3500 
L 3675 769 
L 4391 3500 
L 4966 3500 
L 4050 0 
L 3372 0 
L 2619 2869 
L 1863 0 
L 1184 0 
L 269 3500 
z
" transform="scale(0.015625)"/>
      <path id="DejaVuSans-2c" d="M 750 794 
L 1409 794 
L 1409 256 
L 897 -744 
L 494 -744 
L 750 256 
L 750 794 
z
" transform="scale(0.015625)"/>
      <path id="DejaVuSans-46" d="M 628 4666 
L 3309 4666 
L 3309 4134 
L 1259 4134 
L 1259 2759 
L 3109 2759 
L 3109 2228 
L 1259 2228 
L 1259 0 
L 628 0 
L 628 4666 
z
" transform="scale(0.015625)"/>
      <path id="DejaVuSans-72" d="M 2631 2963 
Q 2534 3019 2420 3045 
Q 2306 3072 2169 3072 
Q 1681 3072 1420 2755 
Q 1159 2438 1159 1844 
L 1159 0 
L 581 0 
L 581 3500 
L 1159 3500 
L 1159 2956 
Q 1341 3275 1631 3429 
Q 1922 3584 2338 3584 
Q 2397 3584 2469 3576 
Q 2541 3569 2628 3553 
L 2631 2963 
z
" transform="scale(0.015625)"/>
      <path id="DejaVuSans-48" d="M 628 4666 
L 1259 4666 
L 1259 2753 
L 3553 2753 
L 3553 4666 
L 4184 4666 
L 4184 0 
L 3553 0 
L 3553 2222 
L 1259 2222 
L 1259 0 
L 628 0 
L 628 4666 
z
" transform="scale(0.015625)"/>
      <path id="DejaVuSans-68" d="M 3513 2113 
L 3513 0 
L 2938 0 
L 2938 2094 
Q 2938 2591 2744 2837 
Q 2550 3084 2163 3084 
Q 1697 3084 1428 2787 
Q 1159 2491 1159 1978 
L 1159 0 
L 581 0 
L 581 4863 
L 1159 4863 
L 1159 2956 
Q 1366 3272 1645 3428 
Q 1925 3584 2291 3584 
Q 2894 3584 3203 3211 
Q 3513 2838 3513 2113 
z
" transform="scale(0.015625)"/>
      <path id="DejaVuSans-71" d="M 947 1747 
Q 947 1113 1208 752 
Q 1469 391 1925 391 
Q 2381 391 2643 752 
Q 2906 1113 2906 1747 
Q 2906 2381 2643 2742 
Q 2381 3103 1925 3103 
Q 1469 3103 1208 2742 
Q 947 2381 947 1747 
z
M 2906 525 
Q 2725 213 2448 61 
Q 2172 -91 1784 -91 
Q 1150 -91 751 415 
Q 353 922 353 1747 
Q 353 2572 751 3078 
Q 1150 3584 1784 3584 
Q 2172 3584 2448 3432 
Q 2725 3281 2906 2969 
L 2906 3500 
L 3481 3500 
L 3481 -1331 
L 2906 -1331 
L 2906 525 
z
" transform="scale(0.015625)"/>
      <path id="DejaVuSans-66" d="M 2375 4863 
L 2375 4384 
L 1825 4384 
Q 1516 4384 1395 4259 
Q 1275 4134 1275 3809 
L 1275 3500 
L 2222 3500 
L 2222 3053 
L 1275 3053 
L 1275 0 
L 697 0 
L 697 3053 
L 147 3053 
L 147 3500 
L 697 3500 
L 697 3744 
Q 697 4328 969 4595 
Q 1241 4863 1831 4863 
L 2375 4863 
z
" transform="scale(0.015625)"/>
      <path id="DejaVuSans-4a" d="M 628 4666 
L 1259 4666 
L 1259 325 
Q 1259 -519 939 -900 
Q 619 -1281 -91 -1281 
L -331 -1281 
L -331 -750 
L -134 -750 
Q 284 -750 456 -515 
Q 628 -281 628 325 
L 628 4666 
z
" transform="scale(0.015625)"/>
     </defs>
     <use xlink:href="#DejaVuSans-52"/>
     <use xlink:href="#DejaVuSans-61" x="67.232422"/>
     <use xlink:href="#DejaVuSans-77" x="128.511719"/>
     <use xlink:href="#DejaVuSans-2c" x="210.298828"/>
     <use xlink:href="#DejaVuSans-20" x="242.085938"/>
     <use xlink:href="#DejaVuSans-46" x="273.873047"/>
     <use xlink:href="#DejaVuSans-69" x="324.142578"/>
     <use xlink:href="#DejaVuSans-6c" x="351.925781"/>
     <use xlink:href="#DejaVuSans-74" x="379.708984"/>
     <use xlink:href="#DejaVuSans-65" x="418.917969"/>
     <use xlink:href="#DejaVuSans-72" x="480.441406"/>
     <use xlink:href="#DejaVuSans-65" x="519.304688"/>
     <use xlink:href="#DejaVuSans-64" x="580.828125"/>
     <use xlink:href="#DejaVuSans-2c" x="644.304688"/>
     <use xlink:href="#DejaVuSans-20" x="676.091797"/>
     <use xlink:href="#DejaVuSans-61" x="707.878906"/>
     <use xlink:href="#DejaVuSans-6e" x="769.158203"/>
     <use xlink:href="#DejaVuSans-64" x="832.537109"/>
     <use xlink:href="#DejaVuSans-20" x="896.013672"/>
     <use xlink:href="#DejaVuSans-48" x="927.800781"/>
     <use xlink:href="#DejaVuSans-69" x="1002.996094"/>
     <use xlink:href="#DejaVuSans-67" x="1030.779297"/>
     <use xlink:href="#DejaVuSans-68" x="1094.255859"/>
     <use xlink:href="#DejaVuSans-20" x="1157.634766"/>
     <use xlink:href="#DejaVuSans-46" x="1189.421875"/>
     <use xlink:href="#DejaVuSans-72" x="1239.691406"/>
     <use xlink:href="#DejaVuSans-65" x="1278.554688"/>
     <use xlink:href="#DejaVuSans-71" x="1340.078125"/>
     <use xlink:href="#DejaVuSans-75" x="1403.554688"/>
     <use xlink:href="#DejaVuSans-65" x="1466.933594"/>
     <use xlink:href="#DejaVuSans-6e" x="1528.457031"/>
     <use xlink:href="#DejaVuSans-63" x="1591.835938"/>
     <use xlink:href="#DejaVuSans-79" x="1646.816406"/>
     <use xlink:href="#DejaVuSans-20" x="1705.996094"/>
     <use xlink:href="#DejaVuSans-73" x="1737.783203"/>
     <use xlink:href="#DejaVuSans-69" x="1789.882812"/>
     <use xlink:href="#DejaVuSans-67" x="1817.666016"/>
     <use xlink:href="#DejaVuSans-6e" x="1881.142578"/>
     <use xlink:href="#DejaVuSans-61" x="1944.521484"/>
     <use xlink:href="#DejaVuSans-6c" x="2005.800781"/>
     <use xlink:href="#DejaVuSans-20" x="2033.583984"/>
     <use xlink:href="#DejaVuSans-6f" x="2065.371094"/>
     <use xlink:href="#DejaVuSans-66" x="2126.552734"/>
     <use xlink:href="#DejaVuSans-20" x="2161.757812"/>
     <use xlink:href="#DejaVuSans-4a" x="2193.544922"/>
     <use xlink:href="#DejaVuSans-6e" x="2223.037109"/>
     <use xlink:href="#DejaVuSans-74" x="2286.416016"/>
     <use xlink:href="#DejaVuSans-20" x="2325.625"/>
     <use xlink:href="#DejaVuSans-56" x="2357.412109"/>
     <use xlink:href="#DejaVuSans-65" x="2418.070312"/>
     <use xlink:href="#DejaVuSans-6c" x="2479.59375"/>
     <use xlink:href="#DejaVuSans-20" x="2507.376953"/>
     <use xlink:href="#DejaVuSans-31" x="2539.164062"/>
    </g>
   </g>
   <g id="legend_1">
    <g id="patch_7">
     <path d="M 65.523438 74.3525 
L 228.415625 74.3525 
Q 230.415625 74.3525 230.415625 72.3525 
L 230.415625 29.318125 
Q 230.415625 27.318125 228.415625 27.318125 
L 65.523438 27.318125 
Q 63.523438 27.318125 63.523438 29.318125 
L 63.523438 72.3525 
Q 63.523438 74.3525 65.523438 74.3525 
z
" style="fill: #ffffff; opacity: 0.8; stroke: #cccccc; stroke-linejoin: miter"/>
    </g>
    <g id="line2d_30">
     <path d="M 67.523438 35.416562 
L 77.523438 35.416562 
L 87.523438 35.416562 
" style="fill: none; stroke: #1f77b4; stroke-width: 1.5; stroke-linecap: square"/>
    </g>
    <g id="text_17">
     <!-- Raw Velocity -->
     <g transform="translate(95.523438 38.916562) scale(0.1 -0.1)">
      <use xlink:href="#DejaVuSans-52"/>
      <use xlink:href="#DejaVuSans-61" x="67.232422"/>
      <use xlink:href="#DejaVuSans-77" x="128.511719"/>
      <use xlink:href="#DejaVuSans-20" x="210.298828"/>
      <use xlink:href="#DejaVuSans-56" x="242.085938"/>
      <use xlink:href="#DejaVuSans-65" x="302.744141"/>
      <use xlink:href="#DejaVuSans-6c" x="364.267578"/>
      <use xlink:href="#DejaVuSans-6f" x="392.050781"/>
      <use xlink:href="#DejaVuSans-63" x="453.232422"/>
      <use xlink:href="#DejaVuSans-69" x="508.212891"/>
      <use xlink:href="#DejaVuSans-74" x="535.996094"/>
      <use xlink:href="#DejaVuSans-79" x="575.205078"/>
     </g>
    </g>
    <g id="line2d_31">
     <path d="M 67.523438 50.094688 
L 77.523438 50.094688 
L 87.523438 50.094688 
" style="fill: none; stroke: #ff7f0e; stroke-width: 1.5; stroke-linecap: square"/>
    </g>
    <g id="text_18">
     <!-- Filtered Velocity (LP: 5 Hz) -->
     <g transform="translate(95.523438 53.594688) scale(0.1 -0.1)">
      <defs>
       <path id="DejaVuSans-4c" d="M 628 4666 
L 1259 4666 
L 1259 531 
L 3531 531 
L 3531 0 
L 628 0 
L 628 4666 
z
" transform="scale(0.015625)"/>
       <path id="DejaVuSans-50" d="M 1259 4147 
L 1259 2394 
L 2053 2394 
Q 2494 2394 2734 2622 
Q 2975 2850 2975 3272 
Q 2975 3691 2734 3919 
Q 2494 4147 2053 4147 
L 1259 4147 
z
M 628 4666 
L 2053 4666 
Q 2838 4666 3239 4311 
Q 3641 3956 3641 3272 
Q 3641 2581 3239 2228 
Q 2838 1875 2053 1875 
L 1259 1875 
L 1259 0 
L 628 0 
L 628 4666 
z
" transform="scale(0.015625)"/>
       <path id="DejaVuSans-7a" d="M 353 3500 
L 3084 3500 
L 3084 2975 
L 922 459 
L 3084 459 
L 3084 0 
L 275 0 
L 275 525 
L 2438 3041 
L 353 3041 
L 353 3500 
z
" transform="scale(0.015625)"/>
      </defs>
      <use xlink:href="#DejaVuSans-46"/>
      <use xlink:href="#DejaVuSans-69" x="50.269531"/>
      <use xlink:href="#DejaVuSans-6c" x="78.052734"/>
      <use xlink:href="#DejaVuSans-74" x="105.835938"/>
      <use xlink:href="#DejaVuSans-65" x="145.044922"/>
      <use xlink:href="#DejaVuSans-72" x="206.568359"/>
      <use xlink:href="#DejaVuSans-65" x="245.431641"/>
      <use xlink:href="#DejaVuSans-64" x="306.955078"/>
      <use xlink:href="#DejaVuSans-20" x="370.431641"/>
      <use xlink:href="#DejaVuSans-56" x="402.21875"/>
      <use xlink:href="#DejaVuSans-65" x="462.876953"/>
      <use xlink:href="#DejaVuSans-6c" x="524.400391"/>
      <use xlink:href="#DejaVuSans-6f" x="552.183594"/>
      <use xlink:href="#DejaVuSans-63" x="613.365234"/>
      <use xlink:href="#DejaVuSans-69" x="668.345703"/>
      <use xlink:href="#DejaVuSans-74" x="696.128906"/>
      <use xlink:href="#DejaVuSans-79" x="735.337891"/>
      <use xlink:href="#DejaVuSans-20" x="794.517578"/>
      <use xlink:href="#DejaVuSans-28" x="826.304688"/>
      <use xlink:href="#DejaVuSans-4c" x="865.318359"/>
      <use xlink:href="#DejaVuSans-50" x="921.03125"/>
      <use xlink:href="#DejaVuSans-3a" x="981.333984"/>
      <use xlink:href="#DejaVuSans-20" x="1015.025391"/>
      <use xlink:href="#DejaVuSans-35" x="1046.8125"/>
      <use xlink:href="#DejaVuSans-20" x="1110.435547"/>
      <use xlink:href="#DejaVuSans-48" x="1142.222656"/>
      <use xlink:href="#DejaVuSans-7a" x="1217.417969"/>
      <use xlink:href="#DejaVuSans-29" x="1269.908203"/>
     </g>
    </g>
    <g id="line2d_32">
     <path d="M 67.523438 64.772812 
L 77.523438 64.772812 
L 87.523438 64.772812 
" style="fill: none; stroke: #2ca02c; stroke-width: 1.5; stroke-linecap: square"/>
    </g>
    <g id="text_19">
     <!-- High Freq. Vel. Comp. -->
     <g transform="translate(95.523438 68.272812) scale(0.1 -0.1)">
      <defs>
       <path id="DejaVuSans-43" d="M 4122 4306 
L 4122 3641 
Q 3803 3938 3442 4084 
Q 3081 4231 2675 4231 
Q 1875 4231 1450 3742 
Q 1025 3253 1025 2328 
Q 1025 1406 1450 917 
Q 1875 428 2675 428 
Q 3081 428 3442 575 
Q 3803 722 4122 1019 
L 4122 359 
Q 3791 134 3420 21 
Q 3050 -91 2638 -91 
Q 1578 -91 968 557 
Q 359 1206 359 2328 
Q 359 3453 968 4101 
Q 1578 4750 2638 4750 
Q 3056 4750 3426 4639 
Q 3797 4528 4122 4306 
z
" transform="scale(0.015625)"/>
      </defs>
      <use xlink:href="#DejaVuSans-48"/>
      <use xlink:href="#DejaVuSans-69" x="75.195312"/>
      <use xlink:href="#DejaVuSans-67" x="102.978516"/>
      <use xlink:href="#DejaVuSans-68" x="166.455078"/>
      <use xlink:href="#DejaVuSans-20" x="229.833984"/>
      <use xlink:href="#DejaVuSans-46" x="261.621094"/>
      <use xlink:href="#DejaVuSans-72" x="311.890625"/>
      <use xlink:href="#DejaVuSans-65" x="350.753906"/>
      <use xlink:href="#DejaVuSans-71" x="412.277344"/>
      <use xlink:href="#DejaVuSans-2e" x="475.753906"/>
      <use xlink:href="#DejaVuSans-20" x="507.541016"/>
      <use xlink:href="#DejaVuSans-56" x="539.328125"/>
      <use xlink:href="#DejaVuSans-65" x="599.986328"/>
      <use xlink:href="#DejaVuSans-6c" x="661.509766"/>
      <use xlink:href="#DejaVuSans-2e" x="689.292969"/>
      <use xlink:href="#DejaVuSans-20" x="721.080078"/>
      <use xlink:href="#DejaVuSans-43" x="752.867188"/>
      <use xlink:href="#DejaVuSans-6f" x="822.691406"/>
      <use xlink:href="#DejaVuSans-6d" x="883.873047"/>
      <use xlink:href="#DejaVuSans-70" x="981.285156"/>
      <use xlink:href="#DejaVuSans-2e" x="1044.761719"/>
     </g>
    </g>
   </g>
  </g>
 </g>
 <defs>
  <clipPath id="p124a120866">
   <rect x="58.523438" y="22.318125" width="357.12" height="266.112"/>
  </clipPath>
 </defs>
</svg>
